<svg id="svg" xmlns="http://www.w3.org/2000/svg" xmlns:xlink="http://www.w3.org/1999/xlink" width="400" height="400.35087719298247" viewBox="0, 0, 400,400.35087719298247" version="1.1"><g id="svgg"><path id="path0" d="M194.912 0.602 C 75.674 2.939,-15.534 112.021,2.662 230.526 C 18.470 333.483,112.333 407.737,215.789 399.129 C 331.017 389.542,414.505 284.231,397.161 170.351 C 382.036 71.040,295.757 -1.375,194.912 0.602 M208.421 6.470 C 272.438 8.177,334.999 46.234,367.871 103.466 C 427.860 207.909,379.648 340.217,266.225 382.414 C 263.569 383.402,261.341 384.211,261.272 384.211 C 261.204 384.211,261.521 383.473,261.978 382.572 C 263.779 379.013,261.866 374.386,258.593 374.386 C 257.942 374.386,257.528 374.171,257.411 373.772 C 257.311 373.434,256.026 369.236,254.554 364.443 C 253.082 359.650,251.953 355.533,252.045 355.294 C 252.191 354.913,256.143 353.168,256.305 353.414 C 256.340 353.466,257.994 357.556,259.980 362.503 C 264.397 373.500,263.735 372.459,265.755 371.594 C 267.735 370.745,267.976 371.921,263.645 361.288 C 261.833 356.841,260.351 353.007,260.351 352.769 C 260.351 352.353,267.272 348.421,268.004 348.421 C 268.349 348.421,271.228 353.436,271.228 354.037 C 271.228 355.405,269.173 355.772,267.636 354.678 C 266.478 353.853,266.285 353.949,265.221 355.884 C 264.687 356.856,268.262 360.055,271.903 361.864 C 277.885 364.837,283.113 363.704,288.027 358.370 L 290.474 355.715 291.209 357.156 C 292.058 358.821,291.995 358.806,293.939 357.788 L 295.422 357.012 290.693 348.067 C 285.336 337.933,285.692 338.834,286.842 338.309 C 287.325 338.090,287.719 337.758,287.719 337.573 C 287.719 337.259,297.533 329.941,298.402 329.608 C 298.619 329.525,299.452 330.385,300.253 331.521 L 301.709 333.585 296.468 337.350 C 289.699 342.214,289.592 342.871,295.329 344.358 C 299.718 345.495,300.824 344.838,298.964 342.198 C 297.574 340.227,297.467 340.474,300.725 338.118 C 303.398 336.185,303.583 336.107,304.044 336.720 C 304.312 337.076,305.919 339.285,307.614 341.627 L 310.697 345.886 312.191 344.813 C 314.066 343.466,314.559 344.556,308.035 335.614 C 301.497 326.652,301.754 327.110,302.821 326.305 L 303.646 325.683 302.797 324.443 C 302.301 323.720,301.797 323.317,301.588 323.477 C 292.758 330.198,282.273 337.400,278.090 339.617 L 274.602 341.467 271.950 340.064 C 265.062 336.421,259.305 336.245,255.432 339.561 C 252.186 342.340,251.830 346.806,254.610 349.878 C 255.258 350.594,254.462 351.197,252.978 351.117 C 252.498 351.091,246.213 352.882,239.011 355.096 L 225.916 359.123 226.123 360.164 C 226.477 361.952,226.701 361.956,232.179 360.259 C 235.033 359.375,237.468 358.758,237.590 358.887 C 238.210 359.546,239.402 364.669,239.062 365.213 C 238.387 366.291,236.999 366.105,235.480 364.733 L 234.070 363.459 233.010 364.624 C 232.427 365.265,231.946 365.900,231.940 366.036 C 231.911 366.732,245.764 377.622,246.079 377.152 C 246.128 377.078,246.613 376.415,247.155 375.679 C 247.697 374.942,248.086 374.295,248.018 374.240 C 247.950 374.186,246.553 373.256,244.912 372.175 C 243.272 371.094,241.463 369.828,240.893 369.361 L 239.857 368.513 240.960 367.943 C 243.371 366.696,243.700 364.875,242.274 360.682 C 241.159 357.403,241.121 357.471,244.616 356.476 C 248.071 355.492,247.660 355.253,248.843 358.932 C 249.961 362.409,250.150 362.055,246.584 363.159 L 243.747 364.037 245.146 365.007 C 246.516 365.956,246.578 365.965,248.054 365.444 C 250.655 364.527,250.550 364.411,252.301 370.118 L 253.898 375.324 252.563 376.604 C 250.899 378.199,250.903 378.343,252.639 379.126 C 253.893 379.692,254.098 379.703,254.481 379.231 C 256.429 376.828,259.298 377.307,259.298 380.035 C 259.298 383.546,253.871 385.128,248.641 383.140 C 247.652 382.764,246.795 382.456,246.736 382.456 C 246.583 382.456,245.614 384.832,245.614 385.209 C 245.614 385.626,247.202 386.273,249.536 386.807 L 251.404 387.234 246.140 388.520 C 236.704 390.825,226.524 392.577,218.947 393.200 L 215.965 393.445 217.261 392.007 C 219.848 389.135,219.316 384.976,216.153 383.340 L 215.174 382.834 214.952 377.294 C 214.830 374.247,214.635 369.741,214.519 367.281 C 214.314 362.950,214.330 362.807,215.020 362.807 C 216.466 362.807,216.842 362.429,216.842 360.978 L 216.842 359.575 213.772 359.779 C 204.944 360.368,197.538 360.390,191.579 359.846 C 188.202 359.537,184.649 359.269,183.684 359.250 C 182.719 359.232,178.497 358.756,174.302 358.194 C 167.895 357.336,164.858 356.710,159.953 355.238 C 159.563 355.121,159.311 355.339,159.165 355.922 C 159.047 356.392,158.860 357.012,158.750 357.300 C 158.603 357.682,159.015 357.977,160.282 358.398 L 162.016 358.974 161.013 362.172 C 159.771 366.133,160.129 365.888,157.015 364.911 C 154.011 363.969,154.111 364.219,155.258 360.526 C 156.772 355.652,155.816 353.327,151.861 352.262 C 149.007 351.494,144.530 355.197,146.242 356.909 C 147.064 357.731,148.772 357.634,148.772 356.765 C 148.772 355.556,149.918 354.596,151.028 354.875 C 152.621 355.275,152.753 356.164,151.725 359.560 C 150.596 363.286,150.878 362.997,148.908 362.445 C 145.803 361.576,145.790 363.762,148.874 368.455 C 150.801 371.387,151.825 371.545,152.657 369.039 C 153.379 366.863,153.185 366.937,155.981 367.766 C 159.220 368.726,159.121 368.362,157.539 373.520 C 156.771 376.023,156.142 378.174,156.142 378.300 C 156.140 378.671,159.411 379.679,159.669 379.388 C 159.857 379.175,163.989 365.844,165.315 361.171 C 165.621 360.095,165.668 360.072,166.882 360.407 C 167.571 360.597,168.329 360.677,168.568 360.586 C 168.993 360.423,178.645 361.692,178.902 361.945 C 179.015 362.056,178.245 368.170,177.700 371.489 C 177.087 375.220,170.687 375.190,169.986 371.454 C 169.302 367.809,172.212 365.705,175.877 367.194 C 177.000 367.650,176.726 364.781,175.598 364.267 C 169.511 361.494,163.459 369.023,167.443 374.412 C 169.052 376.588,173.752 377.932,175.843 376.814 C 176.901 376.247,177.003 376.605,176.574 379.381 C 176.358 380.773,176.250 381.981,176.333 382.064 C 176.512 382.243,179.781 382.771,179.921 382.643 C 180.001 382.571,182.807 363.001,182.807 362.517 C 182.807 362.433,183.350 362.452,184.014 362.560 C 184.678 362.668,185.270 362.625,185.330 362.465 C 185.478 362.070,192.425 362.778,192.579 363.204 C 192.695 363.527,194.969 363.486,206.404 362.956 L 210.526 362.765 210.526 364.841 L 210.526 366.917 205.144 367.098 C 200.753 367.245,199.583 367.395,198.794 367.913 C 197.891 368.504,197.460 368.518,192.385 368.120 C 185.398 367.572,184.934 367.854,186.985 371.404 C 189.757 376.199,191.541 376.898,191.982 373.361 C 192.264 371.095,192.057 371.243,194.620 371.475 L 196.776 371.670 196.997 373.146 C 197.297 375.142,199.235 378.313,201.927 381.211 L 204.156 383.611 205.521 382.530 L 206.886 381.449 204.582 379.019 C 198.163 372.247,198.966 369.925,207.753 369.850 L 210.769 369.825 210.997 374.298 C 211.432 382.823,211.410 383.039,210.032 383.693 C 207.794 384.754,207.570 385.319,208.948 386.419 L 210.147 387.376 211.301 386.672 C 213.814 385.140,215.994 386.781,214.901 389.382 C 213.562 392.566,207.994 392.376,203.537 388.993 L 202.337 388.083 201.491 389.328 C 200.379 390.963,200.575 391.319,203.405 392.805 L 205.789 394.057 195.439 393.894 C 71.079 391.941,-19.248 272.112,12.292 150.929 C 33.635 68.921,108.024 9.170,192.281 6.355 C 196.237 6.223,199.947 6.154,200.526 6.201 C 201.105 6.249,204.658 6.370,208.421 6.470 M203.003 14.889 C 198.284 16.640,197.022 20.705,197.249 33.417 C 197.440 44.033,199.379 46.667,207.004 46.667 C 212.264 46.667,214.859 43.827,215.582 37.281 L 215.824 35.088 213.045 35.088 L 210.266 35.088 210.024 37.226 C 209.498 41.876,207.045 43.662,204.466 41.271 C 202.853 39.776,202.196 31.064,203.142 23.717 C 203.945 17.486,210.173 16.913,210.175 23.070 L 210.175 24.561 212.982 24.561 L 215.789 24.561 215.789 23.038 C 215.789 16.488,209.499 12.479,203.003 14.889 M176.667 15.448 C 169.490 16.896,168.027 21.360,170.140 35.362 C 171.598 45.022,173.674 47.562,180.006 47.437 C 189.617 47.246,191.758 42.928,189.527 28.236 C 187.806 16.912,184.703 13.826,176.667 15.448 M223.138 31.941 C 220.550 46.695,220.506 47.043,221.210 47.195 C 223.082 47.602,225.803 47.994,225.925 47.875 C 226.065 47.736,231.219 18.717,231.225 18.031 C 231.228 17.654,228.014 16.842,226.519 16.842 C 225.829 16.842,225.634 17.713,223.138 31.941 M235.782 33.934 C 233.607 42.102,231.889 48.838,231.966 48.902 C 232.455 49.311,247.153 52.981,247.364 52.747 C 247.651 52.426,248.514 49.094,248.349 48.943 C 248.292 48.891,246.035 48.256,243.333 47.531 C 240.632 46.807,238.387 46.190,238.346 46.160 C 238.255 46.095,240.728 37.066,240.882 36.903 C 240.941 36.840,243.056 37.338,245.582 38.009 L 250.176 39.230 250.737 37.299 C 251.426 34.930,251.605 35.082,246.491 33.700 C 244.175 33.074,242.232 32.516,242.173 32.460 C 241.923 32.223,244.026 24.912,244.344 24.912 C 244.536 24.912,246.812 25.474,249.402 26.161 C 251.991 26.849,254.152 27.362,254.204 27.302 C 254.352 27.130,255.414 23.366,255.334 23.294 C 255.295 23.258,251.770 22.295,247.500 21.155 L 239.738 19.082 235.782 33.934 M334.035 21.228 L 334.035 23.509 337.018 23.509 L 340.000 23.509 340.000 33.158 L 340.000 42.807 342.626 42.807 L 345.252 42.807 345.345 33.246 L 345.439 23.684 348.333 23.582 L 351.228 23.480 351.228 21.214 L 351.228 18.947 342.632 18.947 L 334.035 18.947 334.035 21.228 M353.684 30.877 L 353.684 42.807 355.959 42.807 L 358.235 42.807 358.328 33.130 L 358.421 23.454 361.262 33.043 L 364.102 42.632 365.953 42.632 L 367.803 42.632 370.656 33.180 L 373.509 23.729 373.602 33.268 L 373.695 42.807 376.497 42.807 L 379.298 42.807 379.298 30.866 L 379.298 18.926 375.023 19.024 L 370.748 19.123 368.648 26.053 C 367.494 29.864,366.457 32.982,366.345 32.982 C 366.232 32.982,365.618 31.126,364.980 28.859 C 364.342 26.592,363.424 23.434,362.941 21.842 L 362.063 18.947 357.874 18.947 L 353.684 18.947 353.684 30.877 M181.168 20.696 C 184.046 23.223,185.894 39.772,183.536 41.905 C 181.615 43.644,178.532 43.097,177.263 40.793 C 176.303 39.051,174.549 26.621,174.865 23.799 C 175.289 20.005,178.552 18.399,181.168 20.696 M150.351 20.697 C 144.172 22.029,141.404 25.847,142.848 31.046 C 143.833 34.593,145.926 36.229,152.317 38.447 C 156.980 40.064,158.441 40.894,159.110 42.303 C 160.575 45.390,158.933 48.070,155.579 48.070 C 154.201 48.070,152.456 46.053,151.927 43.848 C 151.444 41.836,151.734 41.896,147.839 42.998 L 146.029 43.510 146.642 45.527 C 148.564 51.852,152.369 53.882,158.662 51.938 C 164.057 50.272,166.460 45.702,164.701 40.451 C 163.510 36.895,161.742 35.633,154.417 33.109 C 149.866 31.541,148.662 30.730,148.210 28.931 C 147.072 24.397,153.681 23.863,155.034 28.380 L 155.450 29.767 157.988 29.055 C 159.384 28.663,160.571 28.302,160.626 28.252 C 160.929 27.981,159.068 23.973,158.158 22.936 C 156.309 20.830,153.488 20.021,150.351 20.697 M260.082 27.214 L 259.364 29.165 260.296 29.505 C 262.758 30.402,265.113 31.359,265.344 31.557 C 265.486 31.678,263.482 37.296,260.892 44.041 L 256.184 56.306 258.671 57.293 C 261.733 58.508,260.872 59.799,266.130 46.110 C 268.583 39.724,270.707 34.310,270.851 34.078 C 271.043 33.767,271.835 33.935,273.881 34.723 C 277.416 36.084,277.292 36.105,278.045 34.009 C 278.855 31.757,279.493 32.183,269.745 28.451 C 259.897 24.680,260.966 24.816,260.082 27.214 M284.095 36.748 C 283.981 37.668,283.546 41.974,283.128 46.316 L 282.367 54.211 279.166 59.813 C 277.405 62.895,275.918 65.522,275.861 65.651 C 275.804 65.780,276.847 66.514,278.178 67.281 L 280.599 68.677 283.884 62.978 L 287.169 57.279 294.988 51.720 C 299.288 48.663,302.807 46.072,302.807 45.963 C 302.807 45.682,298.364 43.158,297.871 43.158 C 297.388 43.158,290.096 48.940,288.619 50.495 C 287.233 51.952,287.001 51.861,287.540 50.071 C 287.954 48.697,289.477 39.588,289.471 38.521 C 289.470 38.273,289.036 37.824,288.507 37.523 C 287.977 37.221,286.815 36.547,285.923 36.025 L 284.303 35.075 284.095 36.748 M111.579 37.671 C 110.518 38.118,107.487 39.743,104.845 41.282 L 100.041 44.080 101.119 45.987 C 101.712 47.036,105.193 53.069,108.854 59.392 L 115.510 70.890 116.703 70.182 C 117.358 69.792,118.431 69.155,119.086 68.766 L 120.277 68.059 117.002 62.373 C 113.393 56.109,113.423 56.390,116.220 54.980 C 120.240 52.953,121.126 53.358,124.303 58.674 C 125.374 60.465,126.653 62.307,127.146 62.767 L 128.042 63.604 130.650 62.112 L 133.259 60.619 131.771 59.169 C 130.953 58.372,129.290 56.090,128.076 54.099 C 125.480 49.844,124.780 49.280,122.164 49.345 C 121.120 49.371,120.412 49.292,120.592 49.170 C 123.644 47.087,121.694 39.661,117.538 37.541 C 115.752 36.630,113.960 36.669,111.579 37.671 M114.827 42.934 C 116.887 44.843,117.613 48.040,116.313 49.476 C 115.643 50.217,111.583 52.765,111.401 52.559 C 111.084 52.199,107.017 45.153,107.096 45.100 C 111.355 42.227,113.435 41.644,114.827 42.934 M86.375 53.663 C 83.223 56.132,80.403 58.394,80.107 58.690 C 79.579 59.218,97.696 83.158,98.624 83.158 C 98.797 83.158,101.699 81.007,105.074 78.378 L 111.209 73.597 110.086 72.033 C 109.468 71.173,108.844 70.395,108.699 70.306 C 108.553 70.216,106.605 71.591,104.368 73.362 C 102.132 75.133,100.175 76.443,100.021 76.274 C 99.102 75.261,94.388 69.016,94.399 68.826 C 94.407 68.700,96.065 67.350,98.084 65.827 C 100.102 64.304,101.754 62.994,101.754 62.917 C 101.754 62.594,99.449 59.675,99.184 59.663 C 99.025 59.655,97.288 60.910,95.324 62.452 C 93.361 63.993,91.673 65.256,91.574 65.259 C 91.408 65.263,89.961 63.458,87.595 60.298 L 86.636 59.017 90.398 56.087 C 92.467 54.476,94.317 53.053,94.508 52.925 C 94.875 52.679,94.376 51.795,92.919 50.113 L 92.105 49.174 86.375 53.663 M191.618 52.671 C 82.462 58.091,16.830 180.095,72.312 274.451 C 135.645 382.160,294.966 368.046,338.525 250.868 C 372.967 158.216,306.327 57.766,207.018 52.641 C 199.585 52.257,199.978 52.256,191.618 52.671 M208.772 58.778 C 291.481 62.461,354.057 142.297,339.266 225.263 C 322.935 316.865,222.504 368.292,138.772 327.929 C 53.818 286.977,31.621 177.401,93.878 106.316 C 120.506 75.912,163.486 56.815,201.579 58.461 C 203.123 58.528,206.360 58.671,208.772 58.778 M319.679 64.407 C 315.695 66.136,305.321 77.301,303.920 81.368 C 301.529 88.309,311.330 96.377,317.828 92.817 C 321.574 90.764,331.218 80.000,332.457 76.489 C 334.817 69.799,326.147 61.600,319.679 64.407 M67.277 71.026 C 59.794 78.780,60.247 78.006,62.193 79.701 L 63.684 81.001 66.033 78.687 L 68.383 76.373 72.430 80.204 C 74.656 82.311,78.970 86.427,82.018 89.351 L 87.560 94.666 89.445 92.567 L 91.329 90.468 90.489 89.677 C 90.027 89.243,85.734 85.123,80.948 80.522 L 72.247 72.157 74.625 69.760 L 77.003 67.364 75.428 65.788 L 73.852 64.212 67.277 71.026 M326.128 70.212 C 328.765 72.527,327.894 74.718,321.659 81.454 C 314.735 88.933,312.936 89.849,310.316 87.228 C 307.854 84.766,308.531 83.165,315.088 75.949 C 321.426 68.973,323.494 67.899,326.128 70.212 M330.351 91.963 C 323.982 97.162,318.727 101.550,318.671 101.713 C 318.487 102.254,321.782 105.989,322.217 105.732 C 322.564 105.527,330.520 99.162,332.313 97.654 C 332.803 97.242,333.252 97.657,335.964 101.032 C 339.338 105.230,339.102 105.134,341.369 103.219 L 342.563 102.211 339.515 98.422 C 337.839 96.338,336.512 94.515,336.567 94.371 C 336.807 93.740,342.544 89.425,342.782 89.698 C 342.927 89.864,344.334 91.609,345.910 93.576 C 347.485 95.543,348.910 97.237,349.077 97.340 C 349.575 97.648,352.677 95.043,352.340 94.600 C 349.606 91.008,342.619 82.616,342.324 82.570 C 342.107 82.536,336.719 86.763,330.351 91.963 M53.714 86.314 C 51.893 88.909,50.954 87.827,61.977 95.834 C 73.070 103.893,73.886 104.904,71.690 107.856 C 69.179 111.232,68.783 111.073,55.278 101.277 C 48.994 96.719,47.136 95.531,46.828 95.875 C 46.611 96.117,45.855 97.125,45.149 98.114 L 43.864 99.912 52.696 106.335 C 67.450 117.064,68.710 117.438,73.509 112.512 C 78.520 107.367,79.161 103.048,75.488 99.182 C 74.378 98.015,55.821 84.211,55.361 84.211 C 55.266 84.211,54.525 85.157,53.714 86.314 M168.772 94.458 C 167.588 95.013,160.082 102.276,138.772 123.490 C 123.140 139.050,105.482 156.591,99.532 162.470 C 87.055 174.795,86.055 176.187,88.212 178.214 C 89.682 179.595,90.855 179.632,133.158 179.640 C 179.373 179.649,176.063 179.828,177.805 177.222 L 178.605 176.023 178.513 137.169 L 178.421 98.315 177.336 96.789 C 175.274 93.888,171.932 92.979,168.772 94.458 M188.518 94.727 C 183.421 95.938,184.213 98.523,192.017 106.152 C 194.960 109.029,212.605 126.558,231.228 145.106 C 258.097 171.868,265.431 178.987,266.751 179.591 C 270.449 181.282,273.949 180.057,275.822 176.417 C 276.469 175.160,276.491 173.810,276.491 136.557 L 276.491 97.999 275.695 96.806 C 273.958 94.206,277.265 94.383,231.053 94.422 C 208.281 94.442,189.140 94.579,188.518 94.727 M39.409 110.562 C 38.794 110.740,37.811 111.366,37.224 111.952 C 36.189 112.988,30.196 124.372,30.533 124.662 C 30.626 124.741,36.815 127.916,44.286 131.716 L 57.871 138.627 59.102 136.181 L 60.334 133.735 58.149 132.521 C 56.948 131.854,54.353 130.502,52.383 129.517 L 48.800 127.727 50.270 124.664 C 52.278 120.481,52.471 117.782,50.935 115.390 C 48.654 111.839,43.074 109.501,39.409 110.562 M44.472 117.073 C 47.177 118.616,47.572 120.325,45.960 123.519 L 44.902 125.615 40.960 123.644 C 38.792 122.561,36.968 121.629,36.907 121.574 C 36.846 121.519,37.263 120.551,37.833 119.421 C 39.751 115.626,41.099 115.149,44.472 117.073 M363.324 116.258 C 362.943 116.516,356.949 119.606,350.004 123.125 C 343.059 126.645,337.306 129.595,337.220 129.681 C 337.069 129.832,339.322 134.737,339.543 134.737 C 339.604 134.737,341.902 133.572,344.651 132.148 C 347.400 130.724,353.555 127.558,358.329 125.112 L 367.008 120.665 365.780 118.227 C 364.464 115.613,364.378 115.544,363.324 116.258 M356.140 134.631 C 348.518 137.432,342.224 139.777,342.154 139.842 C 341.915 140.066,343.685 144.643,344.069 144.794 C 344.561 144.988,355.282 140.873,361.228 138.207 C 364.387 136.791,365.466 136.423,364.737 137.011 C 364.158 137.477,362.105 139.108,360.175 140.635 C 356.779 143.323,346.943 152.095,346.744 152.615 C 346.689 152.756,347.084 154.063,347.621 155.520 L 348.596 158.168 362.969 152.928 C 370.873 150.046,377.385 147.644,377.440 147.589 C 377.583 147.446,376.097 143.036,375.791 142.696 C 375.474 142.344,366.657 145.586,360.112 148.462 C 353.453 151.387,353.368 151.376,357.543 148.115 C 361.960 144.664,373.064 134.777,372.914 134.429 C 372.855 134.293,372.423 133.122,371.953 131.828 C 370.888 128.894,372.561 128.597,356.140 134.631 M24.613 139.620 C 23.966 141.924,23.531 143.962,23.646 144.149 C 23.932 144.612,37.932 151.992,40.434 153.000 C 43.026 154.043,42.834 154.155,39.251 153.695 C 33.964 153.017,21.246 152.333,21.006 152.714 C 20.307 153.822,18.589 160.831,18.959 161.060 C 19.499 161.394,48.112 169.552,48.241 169.409 C 48.728 168.872,49.715 164.150,49.364 164.036 C 47.080 163.290,31.683 159.054,27.752 158.090 C 19.953 156.176,19.573 156.208,36.308 157.369 C 52.811 158.515,51.371 158.568,51.901 156.799 C 52.444 154.989,53.742 155.890,39.825 148.415 C 29.077 142.642,26.101 140.936,27.719 141.476 C 34.471 143.727,37.755 144.746,45.088 146.862 C 49.912 148.255,53.906 149.353,53.962 149.302 C 54.153 149.131,55.497 144.152,55.380 144.050 C 55.316 143.994,48.789 142.091,40.877 139.821 C 32.965 137.551,26.333 135.635,26.140 135.562 C 25.947 135.490,25.260 137.316,24.613 139.620 M364.912 161.246 C 356.711 162.867,349.987 164.197,349.971 164.202 C 349.795 164.254,352.351 176.331,352.729 177.236 C 354.476 181.417,359.921 182.327,370.333 180.175 C 382.229 177.717,383.675 175.738,381.548 164.825 C 380.843 161.206,380.167 158.258,380.046 158.272 C 379.924 158.287,373.114 159.625,364.912 161.246 M377.522 167.032 C 378.422 172.066,376.661 173.310,366.110 175.094 C 358.251 176.422,356.270 175.535,355.562 170.368 L 355.350 168.820 356.710 168.570 C 357.458 168.433,362.175 167.491,367.193 166.478 C 372.211 165.465,376.488 164.620,376.698 164.599 C 376.909 164.578,377.279 165.673,377.522 167.032 M20.614 173.803 C 14.456 175.557,12.493 186.739,17.652 190.675 C 21.268 193.432,38.858 195.127,42.675 193.086 C 47.905 190.288,48.844 179.888,44.172 176.504 C 40.884 174.122,25.633 172.374,20.614 173.803 M32.281 179.470 C 41.166 180.267,42.456 180.870,42.456 184.222 C 42.456 188.163,40.543 188.779,30.877 187.955 C 21.407 187.148,19.864 186.585,19.417 183.778 C 18.712 179.349,21.294 178.485,32.281 179.470 M266.757 186.899 C 264.564 188.087,262.069 190.522,218.498 233.999 C 183.295 269.126,184.302 268.011,185.851 270.100 C 187.214 271.939,185.964 271.889,230.807 271.910 C 276.256 271.932,273.530 272.048,275.439 270.005 L 276.316 269.066 276.400 230.060 L 276.485 191.053 275.699 189.682 C 273.664 186.138,270.171 185.050,266.757 186.899 M90.064 187.175 C 87.341 188.146,86.660 189.824,88.067 192.099 C 89.447 194.333,166.569 270.628,168.527 271.698 C 172.096 273.647,175.843 272.466,177.793 268.777 L 178.596 267.258 178.596 228.974 C 178.596 185.874,178.805 189.111,175.928 187.462 L 174.561 186.678 132.982 186.688 C 98.819 186.696,91.165 186.783,90.064 187.175 M368.596 188.080 C 360.491 188.811,353.851 189.423,353.841 189.441 C 353.831 189.459,353.942 190.539,354.087 191.842 C 354.231 193.145,354.358 194.374,354.368 194.573 C 354.383 194.880,372.527 193.524,382.719 192.455 L 384.912 192.225 384.912 190.542 C 384.912 187.985,384.564 186.660,383.904 186.710 C 383.590 186.733,376.702 187.350,368.596 188.080 M354.611 199.561 C 354.010 203.196,354.250 204.147,355.877 204.579 C 356.697 204.797,358.395 205.254,359.649 205.595 L 361.930 206.215 361.803 209.511 C 361.646 213.597,362.092 213.150,357.643 213.674 C 355.562 213.920,353.744 214.298,353.602 214.516 C 353.018 215.413,353.297 220.000,353.935 220.000 C 354.465 220.000,384.298 215.407,384.442 215.304 C 384.473 215.281,384.552 213.540,384.618 211.433 L 384.737 207.603 370.000 202.946 C 361.895 200.384,355.165 198.279,355.046 198.267 C 354.926 198.255,354.731 198.838,354.611 199.561 M34.389 201.625 C 34.391 202.179,34.489 203.437,34.607 204.422 L 34.822 206.213 37.153 206.213 C 43.243 206.213,43.992 211.858,38.070 213.123 C 35.401 213.693,23.649 214.333,22.071 213.995 C 17.290 212.970,17.677 207.954,22.594 207.217 L 24.154 206.983 23.959 204.281 C 23.721 200.988,24.076 201.276,21.036 201.910 C 16.212 202.916,14.215 205.297,14.252 210.000 C 14.310 217.377,17.242 219.711,26.416 219.682 C 40.466 219.638,45.122 217.856,46.325 212.060 C 47.717 205.357,44.414 201.064,37.632 200.762 L 34.386 200.618 34.389 201.625 M371.545 208.841 C 373.783 209.447,376.956 210.205,378.596 210.526 L 381.579 211.110 378.772 211.356 C 374.572 211.724,369.140 212.276,367.456 212.507 C 365.990 212.708,365.965 212.694,365.965 211.668 C 365.965 209.176,366.404 207.327,366.946 207.535 C 367.238 207.647,369.307 208.235,371.545 208.841 M147.544 280.914 C 140.259 282.697,140.666 289.682,148.352 294.777 C 151.861 297.102,152.628 298.018,152.630 299.887 C 152.635 304.262,147.229 303.637,146.775 299.211 L 146.568 297.193 144.512 297.193 L 142.456 297.193 142.464 299.211 C 142.492 306.599,152.962 309.330,156.379 302.840 C 158.700 298.431,157.188 295.281,150.640 290.877 C 146.975 288.412,146.069 286.562,147.719 284.912 C 149.353 283.278,152.281 284.710,152.281 287.143 C 152.281 288.349,152.288 288.354,154.069 288.475 C 156.467 288.638,156.638 288.480,156.382 286.326 C 155.900 282.253,151.952 279.835,147.544 280.914 M126.667 293.509 L 126.667 305.614 132.982 305.614 L 139.298 305.614 139.298 303.860 L 139.298 302.105 135.088 302.105 L 130.877 302.105 130.877 298.246 L 130.877 294.386 134.737 294.386 L 138.596 294.386 138.596 292.807 L 138.596 291.228 134.737 291.228 L 130.877 291.228 130.877 288.081 L 130.877 284.935 135.000 284.836 L 139.123 284.737 139.230 283.070 L 139.337 281.404 133.002 281.404 L 126.667 281.404 126.667 293.509 M159.649 283.090 L 159.649 284.776 161.842 284.808 C 163.048 284.826,164.232 284.857,164.474 284.876 C 164.814 284.904,164.912 287.236,164.912 295.263 L 164.912 305.614 167.193 305.614 L 169.474 305.614 169.474 295.263 C 169.474 285.650,169.517 284.910,170.088 284.884 C 170.425 284.868,171.610 284.879,172.719 284.908 L 174.737 284.962 174.737 283.183 L 174.737 281.404 167.193 281.404 L 159.649 281.404 159.649 283.090 M177.895 293.509 L 177.895 305.614 183.076 305.614 C 189.414 305.614,190.207 305.319,191.674 302.422 C 193.972 297.883,193.758 286.371,191.323 283.477 C 189.814 281.684,188.687 281.404,182.994 281.404 L 177.895 281.404 177.895 293.509 M222.105 282.530 C 221.395 284.029,220.093 284.913,217.842 285.421 L 215.965 285.845 215.972 287.221 L 215.980 288.596 218.692 288.699 L 221.404 288.801 221.404 297.208 L 221.404 305.614 223.684 305.614 L 225.965 305.614 225.965 293.509 L 225.965 281.404 224.298 281.411 C 222.775 281.418,222.586 281.514,222.105 282.530 M235.440 282.018 C 231.522 283.978,231.071 294.515,234.786 297.284 C 236.134 298.288,238.968 298.271,240.350 297.249 L 241.404 296.470 241.404 298.388 C 241.404 299.442,241.249 300.712,241.060 301.210 C 240.355 303.063,237.421 303.313,236.981 301.557 C 236.602 300.049,232.751 300.403,232.931 301.930 C 233.266 304.763,235.176 306.068,238.988 306.068 C 244.488 306.068,245.439 304.218,245.439 293.509 C 245.439 284.763,245.098 283.452,242.462 282.052 C 240.838 281.191,237.130 281.173,235.440 282.018 M252.105 281.896 C 249.325 283.123,248.768 285.149,248.787 293.960 C 248.806 302.562,249.230 304.042,252.093 305.523 C 253.594 306.299,257.568 306.217,259.033 305.379 C 262.853 303.194,263.184 292.430,259.502 290.115 C 258.106 289.237,254.773 289.366,253.697 290.339 C 252.787 291.163,252.626 287.673,253.497 285.989 C 254.383 284.274,256.990 284.157,257.406 285.813 C 257.600 286.585,257.800 286.667,259.512 286.667 L 261.404 286.667 261.404 285.486 C 261.404 282.235,256.034 280.161,252.105 281.896 M265.494 286.228 C 265.369 288.689,265.265 291.531,265.265 292.544 L 265.263 294.386 267.002 294.386 C 268.388 294.386,268.918 294.208,269.617 293.509 C 270.665 292.461,271.900 292.386,273.031 293.302 C 274.300 294.329,274.300 301.109,273.031 302.136 C 271.141 303.667,269.123 302.473,269.123 299.825 L 269.123 298.246 266.969 298.246 L 264.815 298.246 265.006 300.349 C 265.643 307.378,275.716 308.611,277.920 301.930 C 280.415 294.366,275.597 286.880,270.088 289.762 L 268.772 290.451 268.777 288.646 C 268.786 285.155,268.645 285.263,273.199 285.263 L 277.193 285.263 277.193 283.509 L 277.193 281.754 271.458 281.754 L 265.722 281.754 265.494 286.228 M240.361 285.201 C 242.045 286.564,241.622 293.631,239.807 294.458 C 237.565 295.479,236.284 293.093,236.579 288.446 C 236.753 285.707,237.452 284.561,238.947 284.561 C 239.291 284.561,239.927 284.849,240.361 285.201 M187.013 285.260 C 188.222 285.908,188.597 287.924,188.582 293.684 C 188.563 301.098,188.021 302.105,184.058 302.105 L 182.105 302.105 182.105 293.509 L 182.105 284.912 184.234 284.912 C 185.404 284.912,186.655 285.069,187.013 285.260 M257.116 293.610 C 258.048 294.831,257.533 301.812,256.467 302.410 C 254.031 303.775,252.810 301.802,253.035 296.861 C 253.212 292.951,255.328 291.266,257.116 293.610 M198.742 301.725 C 198.662 301.806,198.596 302.713,198.596 303.743 L 198.596 305.614 200.719 305.614 L 202.842 305.614 202.737 303.641 L 202.632 301.667 200.760 301.623 C 199.730 301.599,198.822 301.645,198.742 301.725 M95.351 323.674 C 94.445 324.919,94.374 324.834,99.265 328.384 L 103.793 331.670 102.536 333.466 C 99.326 338.053,97.348 338.096,97.592 333.573 L 97.691 331.754 96.086 331.649 L 94.481 331.544 94.262 332.915 C 93.832 335.601,93.590 343.384,93.842 346.404 L 94.098 349.474 95.802 349.474 L 97.505 349.474 97.293 344.502 C 97.088 339.706,97.104 339.540,97.751 339.795 C 100.787 340.993,102.083 340.505,104.441 337.273 C 105.529 335.782,106.537 334.429,106.680 334.267 C 107.065 333.831,112.349 337.845,112.059 338.353 C 110.983 340.243,108.285 343.467,107.949 343.266 C 107.726 343.132,106.596 342.335,105.439 341.496 L 103.333 339.969 103.220 341.476 C 103.118 342.824,103.227 343.075,104.247 343.860 C 106.982 345.962,107.034 345.325,103.767 349.837 C 102.155 352.062,100.732 354.052,100.605 354.259 C 100.477 354.466,101.067 355.132,101.919 355.744 L 103.464 356.854 104.317 355.708 C 104.786 355.077,107.106 351.877,109.474 348.596 C 116.182 339.300,115.360 340.219,116.377 340.885 C 116.857 341.199,117.481 341.368,117.763 341.260 C 118.186 341.098,126.929 345.471,127.809 346.285 C 128.249 346.692,123.395 355.461,122.435 355.992 C 120.290 357.180,117.530 356.332,116.645 354.212 C 115.098 350.511,119.935 347.007,122.731 349.803 L 123.762 350.833 124.183 349.426 C 125.135 346.251,119.384 344.285,115.848 346.577 C 110.197 350.242,113.019 359.298,119.813 359.298 C 121.321 359.298,121.320 359.137,119.833 362.089 L 118.613 364.511 120.245 365.423 C 121.501 366.125,121.941 366.232,122.156 365.887 C 122.309 365.640,124.453 361.605,126.919 356.920 C 130.164 350.756,131.549 348.442,131.930 348.547 C 132.219 348.627,132.722 348.802,133.046 348.936 C 133.478 349.114,133.784 348.894,134.187 348.116 C 134.958 346.625,134.912 346.501,133.312 345.780 C 131.660 345.035,131.386 344.624,131.052 342.401 C 130.362 337.796,133.242 335.005,136.808 336.825 L 138.149 337.509 138.548 336.633 C 139.089 335.445,139.169 335.563,137.112 334.520 C 133.978 332.932,131.579 333.343,130.111 335.718 C 129.218 337.163,129.098 337.004,128.216 333.212 L 127.575 330.460 126.156 330.686 C 124.128 331.010,124.128 330.909,126.139 336.498 C 127.147 339.299,128.090 341.967,128.236 342.427 C 128.482 343.201,128.261 343.133,125.216 341.495 C 123.408 340.523,120.351 338.907,118.421 337.903 C 116.407 336.856,110.997 333.251,105.722 329.443 C 95.640 322.163,96.216 322.483,95.351 323.674 M309.552 326.160 C 308.101 327.176,308.742 329.123,310.526 329.123 C 311.647 329.123,312.281 328.534,312.281 327.494 C 312.281 326.824,311.151 325.614,310.526 325.614 C 310.419 325.614,309.981 325.860,309.552 326.160 M315.702 334.063 C 314.996 334.474,314.878 336.141,315.509 336.772 C 316.879 338.142,319.170 336.190,318.102 334.561 C 317.495 333.634,316.716 333.473,315.702 334.063 M268.235 341.539 C 269.688 342.258,270.877 342.981,270.877 343.147 C 270.877 343.556,262.237 348.103,260.702 348.502 C 260.026 348.677,259.140 348.903,258.731 349.004 C 257.827 349.226,256.140 346.193,256.140 344.344 C 256.140 340.157,262.469 338.690,268.235 341.539 M284.367 344.396 L 286.339 348.090 285.746 349.340 C 284.605 351.744,281.838 352.124,280.718 350.030 C 280.057 348.795,280.544 347.445,282.006 346.460 L 283.125 345.706 282.278 344.910 C 280.487 343.228,276.842 346.444,276.842 349.707 C 276.842 354.595,284.020 356.167,286.854 351.900 L 287.544 350.861 288.158 351.610 C 289.007 352.645,288.935 353.193,287.700 355.118 C 283.911 361.022,277.755 362.416,272.842 358.481 L 271.824 357.666 273.045 356.912 C 275.566 355.354,275.617 354.069,273.332 349.715 L 271.577 346.370 276.753 343.565 C 279.600 342.023,282.034 340.747,282.162 340.731 C 282.290 340.715,283.282 342.364,284.367 344.396 " stroke="none" fill="#163581" fill-rule="evenodd"></path><path id="path1" d="M190.877 6.562 C 149.849 8.227,108.076 24.497,76.156 51.244 C -21.375 132.968,-16.163 282.306,86.842 357.429 C 119.051 380.919,160.086 394.048,201.228 394.026 L 205.088 394.024 202.871 392.768 C 200.168 391.236,200.025 390.919,201.271 389.228 C 201.811 388.495,202.300 387.827,202.358 387.745 C 202.416 387.662,202.896 388.006,203.425 388.509 C 206.787 391.707,212.408 392.435,214.380 389.927 C 216.305 387.481,213.770 385.223,211.086 386.993 L 210.066 387.665 208.714 386.578 L 207.362 385.491 208.101 384.704 C 208.508 384.270,209.299 383.726,209.859 383.494 L 210.877 383.073 210.874 378.466 C 210.872 375.933,210.772 373.031,210.650 372.018 L 210.429 370.175 206.244 370.175 C 203.942 370.175,201.754 370.339,201.380 370.539 C 199.737 371.418,201.237 375.090,204.823 378.962 L 207.146 381.471 205.775 382.622 C 204.138 383.996,203.881 383.896,201.264 380.865 C 199.105 378.363,197.265 375.315,196.795 373.458 C 196.141 370.875,192.281 370.618,192.281 373.158 C 192.281 377.615,189.327 376.423,186.462 370.808 C 184.862 367.673,185.698 367.266,192.423 367.909 C 197.411 368.386,197.657 368.379,198.892 367.719 C 199.927 367.165,201.176 366.990,205.351 366.813 L 210.526 366.594 210.521 365.314 C 210.511 363.027,210.829 363.093,201.372 363.407 C 194.564 363.633,192.612 363.597,191.858 363.231 C 190.718 362.679,183.682 362.480,183.217 362.987 C 183.043 363.178,182.303 367.715,181.573 373.070 L 180.246 382.807 179.334 382.803 C 177.323 382.795,175.749 382.365,175.937 381.876 C 176.039 381.611,176.224 380.394,176.350 379.170 L 176.577 376.946 174.868 377.296 C 168.888 378.519,164.069 372.558,166.679 367.167 C 168.796 362.793,176.491 361.995,176.491 366.149 C 176.491 367.938,176.549 367.891,175.216 367.195 C 173.434 366.266,171.541 366.799,170.675 368.472 C 168.719 372.256,172.617 375.629,176.176 373.232 L 177.368 372.429 178.028 367.430 C 178.391 364.680,178.589 362.332,178.468 362.211 C 178.146 361.889,172.516 361.067,169.474 360.898 C 168.026 360.817,166.605 360.661,166.316 360.550 C 165.894 360.388,165.201 362.299,162.824 370.174 C 161.193 375.578,159.840 380.000,159.817 380.000 C 159.544 380.000,156.250 378.796,156.059 378.626 C 155.918 378.501,156.430 376.351,157.198 373.848 C 157.966 371.346,158.594 369.195,158.595 369.069 C 158.596 368.884,154.144 367.368,153.598 367.368 C 153.513 367.368,153.245 368.039,153.002 368.860 C 151.883 372.628,150.181 371.840,147.335 366.238 C 145.625 362.870,146.209 361.357,148.902 362.183 C 150.493 362.671,150.540 362.620,151.585 359.185 C 152.559 355.984,152.360 355.263,150.501 355.263 C 149.454 355.263,149.287 355.399,148.989 356.491 C 148.552 358.089,148.656 358.027,147.216 357.552 C 144.292 356.586,146.908 351.930,150.375 351.930 C 155.361 351.930,157.140 354.920,155.480 360.505 C 154.793 362.814,154.595 363.951,154.865 364.032 C 155.084 364.097,156.041 364.401,156.992 364.707 C 159.688 365.574,159.737 365.547,160.613 362.660 C 161.046 361.232,161.490 359.832,161.599 359.549 C 161.730 359.206,161.501 358.960,160.914 358.812 C 158.291 358.154,158.226 358.078,158.807 356.371 L 159.337 354.818 162.685 355.823 C 170.668 358.220,188.766 359.872,205.351 359.718 C 215.128 359.627,216.842 359.686,216.842 360.113 C 216.842 360.388,216.941 361.107,217.061 361.711 C 217.275 362.777,217.246 362.807,216.009 362.807 L 214.737 362.807 214.749 365.175 C 214.796 374.105,215.402 382.639,216.014 382.982 C 219.436 384.902,220.133 389.103,217.521 392.078 L 216.475 393.269 217.799 393.123 C 224.241 392.413,231.478 391.393,235.263 390.662 C 241.849 389.389,250.469 387.257,249.649 387.104 C 248.314 386.854,245.622 385.910,245.449 385.631 C 245.061 385.003,246.389 382.042,246.973 382.234 C 247.287 382.338,248.412 382.741,249.474 383.130 C 254.034 384.801,258.947 383.232,258.947 380.105 C 258.947 377.732,257.019 377.143,255.104 378.933 L 253.993 379.970 252.435 379.213 C 250.545 378.295,250.546 378.308,252.234 376.620 L 253.592 375.263 252.582 371.930 C 252.027 370.096,251.332 367.786,251.036 366.794 L 250.500 364.992 248.495 365.597 L 246.491 366.202 245.037 365.215 L 243.584 364.228 243.353 365.458 C 243.186 366.347,242.736 366.968,241.733 367.694 L 240.344 368.701 242.716 370.440 C 244.020 371.397,245.838 372.613,246.754 373.141 C 248.734 374.282,248.698 374.101,247.301 375.914 C 246.685 376.714,246.148 377.419,246.107 377.480 C 245.784 377.973,231.556 366.724,231.588 366.002 C 231.594 365.885,232.157 365.188,232.841 364.452 L 234.085 363.114 235.631 364.540 C 237.390 366.161,237.636 366.224,238.568 365.291 C 239.167 364.693,238.278 359.915,237.406 359.043 C 237.353 358.990,234.977 359.658,232.125 360.526 C 229.273 361.395,226.806 362.105,226.642 362.105 C 226.311 362.105,225.473 359.322,225.728 359.068 C 226.042 358.753,252.128 350.817,253.158 350.723 C 253.737 350.670,254.331 350.604,254.479 350.576 C 254.626 350.549,254.357 349.934,253.882 349.211 C 250.061 343.399,254.453 337.028,262.281 337.028 C 265.475 337.028,267.474 337.599,271.796 339.747 L 274.646 341.163 278.652 339.041 C 281.176 337.704,286.157 334.375,292.118 330.041 C 302.881 322.217,301.784 322.784,303.026 324.412 L 303.982 325.665 303.070 326.429 L 302.158 327.193 308.078 335.263 C 314.927 344.599,314.445 343.544,312.481 344.895 C 310.427 346.309,310.802 346.561,307.018 341.222 C 305.184 338.636,303.494 336.585,303.262 336.664 C 303.030 336.743,301.736 337.633,300.388 338.642 L 297.936 340.477 298.968 341.780 C 301.722 345.258,298.747 346.239,292.906 343.779 C 289.680 342.420,290.006 341.770,296.156 337.308 C 298.770 335.411,300.981 333.727,301.069 333.566 C 301.330 333.085,298.814 329.821,298.320 330.000 C 297.452 330.314,288.070 337.252,288.070 337.579 C 288.070 337.761,287.675 338.090,287.193 338.309 C 285.981 338.862,285.809 338.413,290.877 347.921 C 296.165 357.843,295.916 356.939,293.683 358.071 L 291.927 358.960 291.228 357.814 C 290.844 357.183,290.528 356.525,290.528 356.353 C 290.527 356.180,289.582 357.070,288.427 358.330 C 281.827 365.533,273.727 365.509,266.404 358.263 C 264.703 356.581,264.658 356.387,265.610 354.825 C 266.428 353.483,266.465 353.475,267.624 354.386 C 268.911 355.398,270.877 355.247,270.877 354.135 C 270.877 353.468,268.338 348.777,267.975 348.774 C 267.646 348.771,262.254 351.465,261.179 352.170 L 260.409 352.674 264.104 361.794 C 266.137 366.810,267.742 370.956,267.672 371.008 C 267.034 371.479,263.983 372.533,263.801 372.346 C 263.673 372.214,261.954 368.079,259.982 363.158 C 255.743 352.577,256.377 353.494,253.972 354.472 L 252.020 355.266 254.869 364.648 C 257.418 373.038,257.797 374.030,258.457 374.032 C 261.776 374.045,264.291 379.613,262.329 382.607 C 261.430 383.979,261.398 383.984,267.193 381.787 C 330.835 357.657,377.303 302.968,389.980 237.278 C 413.757 114.066,316.581 1.460,190.877 6.562 M209.825 14.412 C 213.532 15.256,215.523 17.879,215.997 22.544 L 216.237 24.912 213.222 24.912 L 210.207 24.912 210.016 23.684 C 209.911 23.009,209.738 21.902,209.633 21.225 C 208.979 17.030,203.908 18.951,203.328 23.614 C 202.831 27.610,203.282 39.398,203.971 40.412 C 206.210 43.711,209.297 42.019,209.770 37.233 L 210.000 34.912 212.982 35.037 C 214.623 35.105,215.984 35.184,216.008 35.212 C 216.152 35.382,215.394 40.244,215.039 41.427 C 212.785 48.952,200.639 48.891,197.627 41.339 C 196.741 39.118,196.768 24.408,197.664 21.053 C 199.190 15.337,203.515 12.975,209.825 14.412 M184.047 15.771 C 187.387 17.219,188.858 20.733,190.018 30.036 C 191.505 41.963,190.249 45.572,184.049 47.178 C 178.290 48.670,173.893 47.313,171.894 43.429 C 169.588 38.945,168.251 23.736,169.838 20.046 C 171.732 15.643,178.829 13.508,184.047 15.771 M228.731 16.899 C 230.008 17.123,231.171 17.407,231.315 17.529 C 231.545 17.725,230.302 25.309,227.170 42.807 C 226.670 45.605,226.154 47.984,226.025 48.093 C 225.555 48.489,220.351 47.313,220.351 46.812 C 220.351 46.374,224.992 19.755,225.470 17.456 C 225.699 16.349,225.649 16.358,228.731 16.899 M247.648 20.949 C 251.783 22.051,255.240 23.147,255.332 23.387 C 255.611 24.115,254.393 27.796,253.929 27.629 C 250.856 26.524,244.466 25.201,244.209 25.617 C 243.670 26.489,242.418 32.032,242.703 32.286 C 242.857 32.424,244.877 33.050,247.193 33.679 C 249.509 34.307,251.449 34.861,251.505 34.910 C 251.844 35.205,250.339 39.298,249.892 39.298 C 249.606 39.298,247.570 38.802,245.367 38.196 C 240.651 36.898,241.055 36.645,239.701 41.754 C 238.444 46.500,238.051 45.929,243.553 47.354 C 245.989 47.985,248.154 48.607,248.364 48.736 C 248.686 48.936,247.993 52.809,247.554 53.262 C 247.394 53.427,231.967 49.277,231.682 48.992 C 231.572 48.882,238.977 20.713,239.466 19.386 C 239.684 18.793,239.214 18.703,247.648 20.949 M176.881 20.490 C 174.881 21.598,174.710 23.475,175.801 32.301 C 176.937 41.485,177.481 42.632,180.702 42.632 C 184.839 42.632,185.241 40.215,183.299 27.042 C 182.384 20.835,180.228 18.634,176.881 20.490 M155.894 20.825 C 157.919 21.671,160.390 25.184,160.761 27.744 C 160.866 28.465,160.633 28.608,158.421 29.177 C 155.169 30.013,155.361 30.073,154.561 27.981 C 153.035 23.988,147.789 24.767,148.559 28.872 C 148.891 30.642,149.642 31.129,154.952 33.022 C 162.056 35.553,163.944 37.017,165.114 40.905 C 166.460 45.377,164.803 49.333,160.724 51.387 C 154.301 54.621,148.760 52.709,146.742 46.563 C 145.668 43.290,145.644 43.348,148.333 42.630 C 149.636 42.282,150.898 41.926,151.137 41.839 C 151.606 41.670,151.694 41.847,152.273 44.107 C 153.452 48.716,159.425 49.132,159.362 44.601 C 159.322 41.707,158.145 40.713,152.456 38.770 C 144.708 36.123,142.389 33.791,142.316 28.572 C 142.235 22.857,150.066 18.390,155.894 20.825 M269.976 28.293 C 274.814 30.153,278.833 31.727,278.907 31.791 C 279.134 31.986,277.478 36.140,277.173 36.140 C 277.016 36.140,275.613 35.642,274.055 35.032 C 272.497 34.422,271.162 33.988,271.088 34.067 C 271.014 34.146,268.859 39.658,266.300 46.316 C 263.740 52.974,261.613 58.465,261.573 58.519 C 261.393 58.761,256.412 56.692,256.267 56.316 C 256.178 56.083,258.166 50.523,260.684 43.959 C 263.203 37.395,265.263 31.936,265.263 31.828 C 265.263 31.720,263.921 31.125,262.281 30.506 C 259.127 29.316,259.025 29.187,259.773 27.324 C 260.034 26.673,260.345 25.864,260.464 25.526 C 260.757 24.692,260.148 24.515,269.976 28.293 M289.750 38.057 C 289.867 38.170,288.191 48.871,287.852 50.175 C 287.638 50.999,287.707 50.975,288.987 49.783 C 290.628 48.256,297.497 42.807,297.782 42.807 C 298.222 42.807,303.158 45.681,303.158 45.937 C 303.158 46.087,299.566 48.768,295.175 51.895 L 287.193 57.581 284.035 63.166 C 282.298 66.238,280.747 68.756,280.588 68.761 C 279.364 68.806,275.460 65.879,275.827 65.193 C 276.044 64.787,277.286 62.624,278.587 60.386 C 279.887 58.147,281.201 55.830,281.506 55.236 C 281.876 54.516,282.368 51.063,282.982 44.885 C 283.489 39.786,283.968 35.416,284.046 35.175 C 284.157 34.833,288.889 37.225,289.750 38.057 M117.937 37.390 C 121.265 39.111,123.622 46.164,121.611 48.385 C 121.062 48.992,121.108 49.023,122.558 49.023 C 124.770 49.023,125.723 49.837,128.168 53.815 C 129.365 55.763,131.017 58.059,131.839 58.917 C 133.705 60.864,133.795 60.601,130.653 62.395 L 127.996 63.912 127.122 63.096 C 126.642 62.648,125.289 60.722,124.117 58.817 C 120.904 53.598,120.350 53.291,117.018 54.877 C 113.573 56.517,113.563 55.988,117.164 62.192 C 120.971 68.751,120.901 68.043,117.906 69.770 L 115.460 71.180 114.260 69.187 C 113.362 67.696,105.836 54.682,99.814 44.206 C 99.623 43.873,110.690 37.620,112.459 37.062 C 114.388 36.453,116.353 36.571,117.937 37.390 M109.825 43.743 C 108.570 44.445,107.499 45.053,107.445 45.094 C 107.363 45.156,111.090 51.827,111.431 52.231 C 112.101 53.022,116.842 48.864,116.842 47.485 C 116.842 43.260,113.691 41.580,109.825 43.743 M93.839 50.896 C 94.595 51.887,95.052 52.790,94.876 52.945 C 94.703 53.097,92.867 54.530,90.797 56.130 C 88.574 57.846,87.127 59.199,87.263 59.431 C 87.847 60.427,91.407 64.912,91.613 64.912 C 91.741 64.912,93.443 63.649,95.396 62.105 C 99.568 58.807,99.138 58.892,100.789 61.035 C 102.429 63.161,102.685 62.606,98.615 65.741 C 96.695 67.220,95.032 68.579,94.919 68.762 C 94.735 69.059,99.746 75.845,100.300 76.048 C 100.424 76.094,102.335 74.695,104.546 72.940 L 108.567 69.748 109.389 70.751 C 109.841 71.303,110.518 72.172,110.892 72.682 L 111.573 73.609 105.421 78.400 C 102.038 81.035,99.059 83.272,98.802 83.370 C 97.944 83.700,79.147 59.299,79.775 58.671 C 80.867 57.579,91.773 49.163,92.121 49.143 C 92.322 49.132,93.096 49.921,93.839 50.896 M216.842 53.124 C 301.534 63.966,359.397 140.841,345.746 224.382 C 335.758 285.509,287.180 334.809,226.140 345.765 C 197.757 350.860,165.782 347.166,141.166 335.948 C 138.304 334.643,137.750 334.472,138.746 335.201 C 139.336 335.632,139.342 335.741,138.828 336.734 L 138.275 337.802 136.532 336.940 C 131.804 334.599,128.677 342.872,133.292 345.513 C 134.183 346.023,134.976 346.490,135.055 346.550 C 135.579 346.952,133.842 349.502,133.181 349.300 C 131.823 348.884,131.445 348.947,131.073 349.649 C 130.869 350.035,128.756 354.019,126.377 358.501 L 122.052 366.652 120.237 365.740 C 119.238 365.238,118.369 364.782,118.306 364.726 C 118.243 364.670,118.756 363.560,119.447 362.259 C 120.137 360.959,120.702 359.859,120.702 359.817 C 120.702 359.774,120.056 359.636,119.266 359.509 C 112.976 358.503,110.292 351.486,114.564 347.214 C 118.123 343.654,125.924 345.573,124.375 349.628 L 123.772 351.208 122.817 350.186 C 121.012 348.254,118.864 348.509,117.294 350.841 C 115.228 353.910,118.043 357.229,121.695 356.033 C 122.827 355.662,127.626 348.133,127.707 346.602 C 127.729 346.181,118.265 341.350,117.882 341.587 C 117.679 341.712,117.131 341.564,116.664 341.258 C 116.196 340.952,115.739 340.702,115.647 340.702 C 115.555 340.702,113.621 343.268,111.351 346.404 C 109.080 349.539,106.383 353.247,105.357 354.642 L 103.491 357.179 101.736 355.918 C 100.565 355.077,100.083 354.524,100.290 354.258 C 101.389 352.844,106.316 345.954,106.316 345.830 C 106.316 345.748,105.526 345.113,104.561 344.419 C 102.892 343.220,102.807 343.081,102.807 341.542 C 102.807 340.138,102.726 339.959,102.193 340.183 C 100.940 340.710,99.995 340.769,98.903 340.388 C 98.286 340.173,97.699 340.079,97.599 340.179 C 97.351 340.427,97.445 346.072,97.730 348.150 L 97.961 349.825 95.784 349.825 L 93.607 349.825 93.735 340.893 C 93.879 330.866,93.830 331.049,96.297 331.419 C 97.923 331.663,97.941 331.680,97.884 332.938 C 97.663 337.824,98.996 338.077,102.046 333.728 L 103.460 331.712 98.923 328.430 C 96.428 326.625,94.386 325.074,94.386 324.984 C 94.386 324.604,95.870 322.456,96.133 322.456 C 96.290 322.456,100.453 325.376,105.383 328.945 C 110.313 332.513,115.501 336.049,116.910 336.803 C 124.365 340.788,128.070 342.729,128.070 342.650 C 128.070 342.602,127.202 340.132,126.140 337.161 C 123.704 330.342,123.667 330.935,126.559 330.354 C 127.798 330.105,127.692 329.898,128.780 334.674 L 129.205 336.541 129.953 335.488 C 130.967 334.060,132.296 333.335,133.914 333.326 C 135.211 333.319,135.126 333.246,131.754 331.467 C 97.462 313.376,71.614 283.110,59.632 247.018 C 29.205 155.359,92.715 60.086,189.298 52.501 C 193.672 52.157,212.644 52.587,216.842 53.124 M190.526 58.978 C 84.121 66.384,23.341 185.150,79.972 275.007 C 141.728 372.996,288.270 359.843,331.219 252.456 C 369.606 156.476,293.496 51.810,190.526 58.978 M325.803 64.168 C 327.966 65.150,331.413 68.537,332.490 70.740 C 334.633 75.119,332.111 79.882,322.935 88.787 C 315.975 95.541,311.836 95.846,306.373 90.006 C 301.419 84.709,302.183 81.080,310.047 72.569 C 317.793 64.184,321.495 62.211,325.803 64.168 M75.792 65.792 L 77.344 67.374 74.968 69.769 L 72.591 72.163 81.997 81.249 C 87.171 86.245,91.444 90.420,91.494 90.526 C 91.544 90.632,90.639 91.654,89.483 92.798 L 87.382 94.877 84.305 91.904 C 82.613 90.269,78.333 86.144,74.795 82.736 L 68.362 76.541 66.065 78.975 L 63.769 81.409 62.148 79.915 C 59.999 77.935,59.663 78.553,67.018 70.944 C 74.379 63.328,73.741 63.703,75.792 65.792 M320.842 70.478 C 318.901 71.902,310.860 80.760,309.890 82.543 C 308.319 85.431,310.638 88.915,313.686 88.245 C 315.577 87.830,325.419 77.768,326.706 74.934 C 328.560 70.851,324.519 67.779,320.842 70.478 M347.787 88.523 L 352.943 94.912 351.998 95.706 C 351.478 96.142,350.630 96.816,350.113 97.203 L 349.173 97.907 346.103 94.129 C 344.414 92.051,342.915 90.212,342.770 90.043 C 342.504 89.731,336.844 93.975,336.843 94.487 C 336.842 94.640,338.199 96.451,339.857 98.512 L 342.872 102.260 341.875 103.078 C 341.326 103.527,340.465 104.198,339.961 104.569 L 339.044 105.242 335.975 101.396 C 334.287 99.281,332.761 97.639,332.584 97.748 C 332.408 97.857,329.939 99.844,327.097 102.162 L 321.930 106.377 320.588 104.855 C 318.641 102.646,318.095 101.764,318.457 101.411 C 319.326 100.564,342.267 82.107,342.436 82.119 C 342.543 82.127,344.952 85.009,347.787 88.523 M65.096 90.890 C 77.131 99.700,78.766 101.504,78.070 105.210 C 77.315 109.237,72.807 114.640,69.552 115.420 C 66.067 116.256,65.742 116.087,52.895 106.755 L 43.510 99.938 44.562 98.478 C 45.141 97.675,45.970 96.586,46.404 96.058 L 47.193 95.098 56.140 101.608 C 68.690 110.740,69.207 110.931,71.677 107.378 C 73.473 104.795,72.745 103.958,61.711 95.927 C 56.528 92.154,52.203 88.930,52.099 88.761 C 51.931 88.490,55.005 83.860,55.354 83.860 C 55.431 83.860,59.815 87.023,65.096 90.890 M173.779 93.704 C 175.383 94.150,177.392 96.084,178.278 98.035 C 178.903 99.409,178.932 101.165,178.940 137.382 L 178.947 175.290 178.158 176.855 C 177.579 178.003,176.947 178.634,175.789 179.218 L 174.211 180.015 132.281 179.920 C 86.013 179.815,88.981 179.962,87.496 177.696 C 86.056 175.498,84.582 177.097,126.741 135.118 C 172.385 89.668,169.234 92.443,173.779 93.704 M273.677 94.825 C 276.962 96.503,276.653 92.401,276.771 135.903 C 276.882 176.865,276.929 175.737,275.035 178.028 C 271.635 182.140,267.768 181.510,261.861 175.881 C 256.293 170.577,186.888 101.281,186.056 100.195 C 184.310 97.919,185.459 95.026,188.294 94.561 C 189.039 94.439,189.886 94.289,190.175 94.228 C 190.465 94.167,209.024 94.098,231.417 94.076 L 272.132 94.035 273.677 94.825 M45.677 111.012 C 52.111 113.658,53.689 117.932,50.602 124.358 C 49.449 126.757,49.203 127.555,49.549 127.777 C 49.797 127.936,52.389 129.286,55.309 130.778 L 60.619 133.489 59.355 136.043 C 57.988 138.806,57.795 138.918,56.063 137.958 C 55.430 137.607,49.346 134.496,42.544 131.044 C 35.741 127.593,30.175 124.623,30.175 124.445 C 30.175 123.873,35.864 113.187,36.629 112.322 C 38.707 109.973,41.993 109.497,45.677 111.012 M366.141 118.248 L 367.353 120.654 366.220 121.329 C 365.597 121.701,363.114 122.995,360.702 124.205 C 358.289 125.416,352.669 128.280,348.213 130.571 C 343.756 132.862,339.929 134.737,339.708 134.737 C 339.249 134.737,336.694 129.856,336.995 129.555 C 337.520 129.030,364.421 115.535,364.658 115.677 C 364.807 115.768,365.475 116.924,366.141 118.248 M39.922 116.828 C 39.042 117.521,36.891 121.228,37.201 121.518 C 37.457 121.757,44.521 125.263,44.747 125.263 C 45.139 125.263,46.660 121.556,46.663 120.591 C 46.673 117.754,42.036 115.165,39.922 116.828 M372.199 131.936 L 373.267 134.749 367.248 140.155 C 363.937 143.128,359.965 146.534,358.421 147.724 C 354.974 150.379,354.983 150.370,356.491 149.721 C 365.292 145.936,375.720 141.879,375.928 142.158 C 376.334 142.702,377.806 147.590,377.614 147.757 C 377.140 148.169,349.026 158.272,348.676 158.155 C 348.182 157.990,346.231 152.565,346.567 152.287 C 346.718 152.162,349.227 149.896,352.143 147.252 C 355.058 144.608,358.769 141.406,360.388 140.137 C 364.402 136.992,364.414 136.967,361.228 138.430 C 356.120 140.776,343.953 145.502,343.733 145.226 C 343.047 144.365,341.796 139.840,342.179 139.603 C 342.428 139.449,348.079 137.346,354.737 134.928 C 361.395 132.511,367.632 130.223,368.596 129.844 C 371.081 128.869,371.020 128.834,372.199 131.936 M40.977 139.609 C 48.944 141.896,55.530 143.835,55.613 143.917 C 55.971 144.275,54.249 149.474,53.772 149.474 C 53.101 149.474,37.138 144.856,33.185 143.519 C 31.463 142.936,29.995 142.520,29.922 142.593 C 29.849 142.666,34.415 145.214,40.070 148.255 C 50.065 153.630,52.632 155.055,52.632 155.229 C 52.632 155.888,51.408 158.596,51.111 158.596 C 50.890 158.596,44.886 158.194,37.770 157.701 C 30.654 157.209,24.774 156.863,24.705 156.933 C 24.635 157.002,26.114 157.427,27.991 157.878 C 32.032 158.847,49.506 163.775,49.744 164.013 C 49.933 164.202,48.861 168.762,48.483 169.374 C 48.285 169.694,19.036 161.788,18.316 161.218 C 18.185 161.115,20.663 152.553,20.890 152.326 C 21.097 152.120,35.071 152.926,38.414 153.337 C 41.443 153.710,41.511 153.652,39.178 152.685 C 37.677 152.063,23.666 144.762,23.211 144.365 C 23.108 144.276,24.950 137.251,25.437 135.877 C 25.673 135.209,25.534 135.175,40.977 139.609 M381.713 164.417 C 383.909 175.744,382.416 177.864,370.457 180.395 C 359.191 182.780,353.729 181.531,352.163 176.211 C 351.538 174.088,349.670 164.247,349.857 164.062 C 350.312 163.612,380.203 158.067,380.397 158.396 C 380.519 158.603,381.111 161.312,381.713 164.417 M366.491 166.864 C 361.281 167.899,356.679 168.829,356.265 168.932 C 355.032 169.236,356.151 173.441,357.814 174.749 C 360.060 176.515,374.000 174.125,376.597 171.527 C 377.631 170.494,377.807 167.622,376.971 165.443 C 376.715 164.777,377.608 164.656,366.491 166.864 M32.982 173.511 C 45.001 174.728,47.758 176.895,47.277 184.746 C 46.758 193.227,43.123 195.145,29.948 193.888 C 16.963 192.649,13.684 190.029,14.721 181.721 C 15.705 173.832,19.464 172.143,32.982 173.511 M21.325 179.845 C 19.294 180.947,18.958 183.985,20.687 185.600 C 23.150 187.901,39.259 188.971,41.264 186.966 C 43.108 185.122,42.645 182.193,40.320 180.991 C 37.770 179.674,23.254 178.798,21.325 179.845 M271.579 185.960 C 273.331 186.447,275.230 188.142,276.101 189.996 L 276.851 191.591 276.759 230.156 C 276.656 273.357,276.896 269.407,274.251 271.382 C 273.277 272.109,195.266 272.770,189.579 272.099 C 184.913 271.548,183.886 268.254,187.282 264.737 C 189.310 262.637,251.613 200.692,258.607 193.822 C 266.891 185.685,268.055 184.979,271.579 185.960 M176.270 187.335 C 179.116 189.104,178.931 186.223,178.936 228.947 L 178.941 266.842 178.113 268.596 C 176.007 273.063,171.659 274.226,167.507 271.434 C 165.019 269.761,88.433 193.228,87.670 191.652 C 86.446 189.124,87.597 187.347,90.878 186.699 C 91.753 186.526,110.810 186.410,133.684 186.439 L 174.912 186.491 176.270 187.335 M385.090 189.494 C 385.227 191.049,385.283 192.369,385.214 192.428 C 385.007 192.602,354.372 195.191,354.229 195.046 C 353.628 194.438,353.650 189.121,354.253 189.097 C 354.616 189.083,360.675 188.549,367.719 187.911 C 374.763 187.273,381.497 186.732,382.683 186.709 L 384.839 186.667 385.090 189.494 M370.261 202.811 L 385.259 207.490 385.039 211.026 C 384.918 212.970,384.696 214.792,384.546 215.075 C 384.313 215.515,356.371 220.253,353.544 220.332 C 352.924 220.350,352.893 220.142,353.092 217.324 C 353.352 213.633,352.958 213.985,357.431 213.446 C 361.863 212.912,361.275 213.456,361.573 209.616 L 361.820 206.424 358.088 205.435 C 356.035 204.891,354.282 204.326,354.191 204.180 C 353.850 203.627,354.490 197.860,354.878 197.996 C 355.090 198.071,362.012 200.238,370.261 202.811 M42.110 201.292 C 45.301 202.704,46.661 205.206,46.665 209.674 C 46.671 217.571,42.565 219.724,27.368 219.793 C 16.811 219.842,14.456 218.226,14.114 210.702 C 13.863 205.168,16.256 202.301,21.826 201.465 C 24.131 201.118,24.118 201.099,24.267 205.064 L 24.344 207.146 22.361 207.542 C 18.876 208.238,17.805 210.491,19.943 212.629 C 22.287 214.973,39.341 213.815,41.182 211.187 C 43.132 208.404,41.089 206.322,36.404 206.318 L 34.386 206.316 34.386 204.961 C 34.386 204.216,34.282 202.851,34.156 201.928 L 33.926 200.250 37.231 200.422 C 39.447 200.538,41.054 200.825,42.110 201.292 M366.561 207.942 C 366.107 208.396,366.280 212.281,366.754 212.277 C 366.996 212.275,369.246 212.042,371.754 211.758 C 374.263 211.474,377.184 211.217,378.246 211.187 C 379.307 211.157,379.781 211.061,379.298 210.975 C 378.131 210.764,368.044 208.175,367.350 207.907 C 367.051 207.792,366.695 207.808,366.561 207.942 M153.690 281.505 C 155.524 282.475,156.459 284.104,156.739 286.820 L 156.940 288.772 154.655 288.772 L 152.370 288.772 152.133 287.290 C 151.593 283.909,147.351 283.286,147.380 286.591 C 147.394 288.290,147.648 288.574,151.485 291.191 C 158.705 296.117,159.756 302.752,153.777 305.657 C 147.772 308.574,141.539 304.598,142.161 298.246 L 142.281 297.018 144.649 296.914 L 147.018 296.810 147.018 298.709 C 147.018 301.996,149.862 303.846,151.735 301.776 C 153.386 299.952,152.392 297.756,148.849 295.396 C 143.757 292.004,142.362 290.214,142.319 287.018 C 142.262 282.819,144.661 280.702,149.474 280.702 C 151.608 280.702,152.487 280.869,153.690 281.505 M139.298 282.982 L 139.298 284.912 135.263 284.912 L 131.228 284.912 131.228 287.883 L 131.228 290.853 135.000 290.953 L 138.772 291.053 138.772 292.807 L 138.772 294.561 135.000 294.661 L 131.228 294.761 131.228 298.433 L 131.228 302.105 135.263 302.105 L 139.298 302.105 139.298 304.035 L 139.298 305.965 132.807 305.965 L 126.316 305.965 126.316 293.509 L 126.316 281.053 132.807 281.053 L 139.298 281.053 139.298 282.982 M174.791 282.836 C 174.941 285.047,175.120 284.912,172.047 284.912 L 169.474 284.912 169.474 295.455 L 169.474 305.997 167.144 305.893 L 164.814 305.789 164.775 295.439 L 164.737 285.088 162.018 284.985 L 159.298 284.883 159.298 282.968 L 159.298 281.053 166.984 281.053 L 174.669 281.053 174.791 282.836 M188.846 281.467 C 192.239 282.484,193.333 285.321,193.333 293.101 C 193.333 304.082,191.776 305.965,182.696 305.965 L 177.544 305.965 177.544 293.509 L 177.544 281.053 182.503 281.053 C 185.303 281.053,188.065 281.233,188.846 281.467 M225.965 293.509 L 225.965 305.965 223.684 305.965 L 221.404 305.965 221.404 297.368 L 221.404 288.772 218.596 288.772 L 215.789 288.772 215.789 287.066 L 215.789 285.361 217.627 285.143 C 219.779 284.888,220.960 284.119,221.930 282.341 C 222.586 281.139,222.741 281.054,224.298 281.054 L 225.965 281.053 225.965 293.509 M242.460 281.842 C 245.372 283.319,245.789 284.760,245.789 293.324 C 245.789 304.068,244.846 305.988,239.432 306.262 C 235.262 306.472,232.632 304.674,232.632 301.614 C 232.632 300.290,237.069 300.172,237.256 301.491 C 237.346 302.121,237.628 302.302,238.651 302.388 C 240.350 302.529,241.053 301.557,241.053 299.066 L 241.053 297.235 240.088 297.738 C 234.957 300.415,230.960 295.072,232.251 287.259 C 233.155 281.781,237.644 279.399,242.460 281.842 M258.940 281.667 C 260.422 282.412,261.754 284.305,261.754 285.666 C 261.754 287.061,257.613 287.245,257.013 285.877 C 255.993 283.551,253.333 285.250,253.333 288.228 L 253.333 290.140 254.550 289.631 C 259.721 287.470,263.171 292.038,262.143 299.683 C 261.494 304.500,259.660 306.316,255.441 306.316 C 252.044 306.316,250.196 305.192,249.092 302.456 C 248.115 300.033,248.400 286.534,249.474 284.386 C 250.996 281.341,255.637 280.008,258.940 281.667 M277.544 283.333 L 277.544 285.263 273.333 285.263 L 269.123 285.263 269.123 287.556 C 269.123 289.715,269.163 289.828,269.801 289.486 C 275.319 286.533,280.386 293.809,278.274 301.651 C 276.280 309.053,265.561 307.818,264.712 300.088 L 264.471 297.895 266.797 297.895 L 269.123 297.895 269.123 298.959 C 269.123 301.091,269.998 302.456,271.366 302.456 C 273.238 302.456,273.684 301.545,273.684 297.719 C 273.684 293.153,271.610 291.223,269.536 293.860 C 268.945 294.611,268.561 294.737,266.857 294.737 L 264.867 294.737 265.082 289.211 C 265.200 286.171,265.375 283.171,265.471 282.544 L 265.646 281.404 271.595 281.404 L 277.544 281.404 277.544 283.333 M182.456 293.552 L 182.456 302.192 184.445 302.027 C 187.987 301.734,188.643 300.021,188.353 291.830 C 188.139 285.770,187.622 284.912,184.182 284.912 L 182.456 284.912 182.456 293.552 M237.388 285.692 C 235.791 287.972,236.933 294.211,238.947 294.211 C 240.603 294.211,241.041 293.221,241.047 289.464 C 241.053 285.980,240.561 284.912,238.947 284.912 C 238.298 284.912,237.738 285.193,237.388 285.692 M253.880 293.762 C 253.101 294.874,253.111 300.579,253.893 301.696 C 254.663 302.795,256.467 302.631,257.109 301.404 C 259.087 297.620,256.110 290.578,253.880 293.762 M203.158 303.684 L 203.158 305.965 200.877 305.965 L 198.596 305.965 198.596 303.684 L 198.596 301.404 200.877 301.404 L 203.158 301.404 203.158 303.684 M312.147 326.506 C 313.181 328.084,311.458 330.041,309.647 329.346 C 307.792 328.634,308.504 325.614,310.526 325.614 C 311.249 325.614,311.740 325.884,312.147 326.506 M318.158 334.133 C 318.951 334.746,318.678 336.421,317.679 337.076 C 316.317 337.968,314.912 337.135,314.912 335.436 C 314.912 333.634,316.625 332.946,318.158 334.133 M104.979 336.988 L 103.162 339.590 105.353 341.138 C 106.558 341.989,107.727 342.793,107.951 342.923 C 108.286 343.119,110.484 340.444,111.694 338.367 C 111.888 338.034,107.541 334.386,106.951 334.386 C 106.866 334.386,105.978 335.557,104.979 336.988 M260.702 340.326 C 256.806 341.105,255.392 344.203,257.383 347.600 L 258.274 349.120 259.512 348.603 C 260.192 348.319,260.861 348.122,260.998 348.166 C 261.336 348.274,270.526 343.417,270.526 343.130 C 270.526 342.403,263.454 339.795,262.145 340.040 C 262.027 340.063,261.377 340.191,260.702 340.326 M277.107 343.638 C 274.455 345.044,272.200 346.280,272.096 346.383 C 271.993 346.487,272.552 347.767,273.340 349.227 C 275.793 353.774,275.786 355.513,273.310 356.976 C 269.973 358.947,279.000 361.614,282.650 359.736 C 285.875 358.076,288.927 353.845,288.142 352.123 L 287.722 351.201 286.586 352.495 C 281.534 358.248,273.226 351.785,278.151 345.933 C 279.772 344.007,281.280 343.610,282.509 344.787 L 283.525 345.761 282.552 346.270 C 280.619 347.280,280.096 349.219,281.404 350.526 C 282.714 351.837,284.765 351.172,285.596 349.166 C 286.008 348.172,282.973 341.017,282.160 341.067 C 282.034 341.074,279.760 342.231,277.107 343.638 M244.474 356.721 C 242.978 357.194,241.754 357.769,241.754 358.000 C 241.754 359.309,243.622 363.891,244.083 363.714 C 244.359 363.609,245.684 363.188,247.029 362.779 C 248.374 362.371,249.474 361.943,249.474 361.829 C 249.474 361.309,247.554 355.793,247.384 355.825 C 247.279 355.845,245.969 356.248,244.474 356.721 " stroke="none" fill="#fbfbfb" fill-rule="evenodd"></path><path id="path2" d="M215.817 23.755 C 215.792 24.452,215.575 24.540,213.596 24.652 L 211.404 24.777 213.608 24.845 C 215.848 24.913,216.474 24.548,216.026 23.433 C 215.926 23.185,215.832 23.330,215.817 23.755 M174.825 24.737 C 174.829 25.509,174.901 25.783,174.985 25.347 C 175.069 24.910,175.066 24.279,174.978 23.943 C 174.890 23.608,174.821 23.965,174.825 24.737 M196.942 29.298 C 196.945 30.263,197.013 30.616,197.094 30.083 C 197.175 29.550,197.172 28.760,197.089 28.329 C 197.006 27.897,196.940 28.333,196.942 29.298 M202.916 33.158 C 202.918 34.316,202.983 34.747,203.061 34.117 C 203.139 33.486,203.138 32.539,203.058 32.011 C 202.978 31.484,202.914 32.000,202.916 33.158 M178.766 137.544 C 178.766 158.096,178.808 166.504,178.860 156.228 C 178.911 145.952,178.911 129.136,178.860 118.860 C 178.808 108.583,178.766 116.991,178.766 137.544 M139.643 122.368 L 135.965 126.140 139.737 122.462 C 141.811 120.440,143.509 118.742,143.509 118.690 C 143.509 118.437,143.059 118.865,139.643 122.368 M227.719 141.930 C 230.706 144.921,233.228 147.368,233.325 147.368 C 233.421 147.368,231.057 144.921,228.070 141.930 C 225.084 138.939,222.561 136.491,222.465 136.491 C 222.368 136.491,224.733 138.939,227.719 141.930 M24.298 173.234 C 24.829 173.314,25.697 173.314,26.228 173.234 C 26.759 173.153,26.325 173.088,25.263 173.088 C 24.202 173.088,23.768 173.153,24.298 173.234 M360.267 175.687 C 360.704 175.771,361.335 175.767,361.671 175.680 C 362.006 175.592,361.649 175.523,360.877 175.527 C 360.105 175.531,359.831 175.603,360.267 175.687 M169.729 179.902 C 170.352 179.980,171.457 179.981,172.185 179.905 C 172.913 179.829,172.404 179.766,171.053 179.764 C 169.702 179.763,169.106 179.825,169.729 179.902 M178.766 229.474 C 178.766 249.640,178.808 257.890,178.860 247.807 C 178.911 237.724,178.911 221.224,178.860 211.140 C 178.808 201.057,178.766 209.307,178.766 229.474 M58.334 194.561 C 58.338 195.333,58.410 195.608,58.494 195.171 C 58.578 194.735,58.575 194.103,58.487 193.768 C 58.399 193.432,58.330 193.789,58.334 194.561 M347.450 194.386 C 347.450 195.061,347.522 195.338,347.610 195.000 C 347.699 194.662,347.699 194.110,347.610 193.772 C 347.522 193.434,347.450 193.711,347.450 194.386 M36.053 194.283 C 36.487 194.366,37.197 194.366,37.632 194.283 C 38.066 194.199,37.711 194.131,36.842 194.131 C 35.974 194.131,35.618 194.199,36.053 194.283 M52.018 197.018 C 52.022 197.789,52.094 198.064,52.178 197.627 C 52.262 197.191,52.259 196.559,52.171 196.224 C 52.083 195.889,52.014 196.246,52.018 197.018 M52.018 202.982 C 52.022 203.754,52.094 204.029,52.178 203.592 C 52.262 203.156,52.259 202.524,52.171 202.189 C 52.083 201.853,52.014 202.211,52.018 202.982 M58.327 205.614 C 58.327 206.289,58.399 206.566,58.487 206.228 C 58.576 205.890,58.576 205.338,58.487 205.000 C 58.399 204.662,58.327 204.939,58.327 205.614 M347.450 205.965 C 347.450 206.640,347.522 206.917,347.610 206.579 C 347.699 206.241,347.699 205.689,347.610 205.351 C 347.522 205.013,347.450 205.289,347.450 205.965 M207.364 244.825 L 201.579 250.702 207.456 244.916 C 212.916 239.541,213.492 238.947,213.242 238.947 C 213.191 238.947,210.546 241.592,207.364 244.825 M159.825 264.211 C 162.714 267.105,165.158 269.474,165.254 269.474 C 165.351 269.474,163.065 267.105,160.175 264.211 C 157.286 261.316,154.842 258.947,154.746 258.947 C 154.649 258.947,156.935 261.316,159.825 264.211 M210.614 272.193 C 221.952 272.244,240.504 272.244,251.842 272.193 C 263.180 272.142,253.904 272.100,231.228 272.100 C 208.553 272.100,199.276 272.142,210.614 272.193 M137.632 281.295 C 137.969 281.383,138.522 281.383,138.860 281.295 C 139.197 281.206,138.921 281.134,138.246 281.134 C 137.570 281.134,137.294 281.206,137.632 281.295 M159.441 281.539 C 159.338 281.806,159.315 282.714,159.390 283.556 L 159.527 285.088 159.588 283.269 C 159.645 281.573,159.714 281.440,160.614 281.304 L 161.579 281.158 160.603 281.105 C 160.054 281.076,159.545 281.265,159.441 281.539 M163.070 281.306 C 163.697 281.384,164.724 281.384,165.351 281.306 C 165.978 281.229,165.465 281.165,164.211 281.165 C 162.956 281.165,162.443 281.229,163.070 281.306 M178.509 281.300 C 178.943 281.384,179.654 281.384,180.088 281.300 C 180.522 281.217,180.167 281.148,179.298 281.148 C 178.430 281.148,178.075 281.217,178.509 281.300 M182.895 281.295 C 183.232 281.383,183.785 281.383,184.123 281.295 C 184.461 281.206,184.184 281.134,183.509 281.134 C 182.833 281.134,182.557 281.206,182.895 281.295 M268.526 281.665 C 270.224 281.729,272.908 281.729,274.491 281.664 C 276.074 281.599,274.684 281.547,271.404 281.547 C 268.123 281.547,266.828 281.601,268.526 281.665 M182.257 293.509 C 182.257 298.333,182.307 300.356,182.367 298.003 C 182.428 295.650,182.428 291.703,182.368 289.231 C 182.307 286.759,182.258 288.684,182.257 293.509 M245.749 293.333 C 245.749 295.746,245.805 296.732,245.874 295.526 C 245.942 294.320,245.942 292.346,245.874 291.140 C 245.805 289.934,245.749 290.921,245.749 293.333 M142.194 298.421 C 142.198 299.193,142.269 299.467,142.353 299.031 C 142.437 298.595,142.434 297.963,142.346 297.627 C 142.259 297.292,142.190 297.649,142.194 298.421 M129.754 305.875 C 131.355 305.941,133.881 305.940,135.368 305.875 C 136.854 305.809,135.544 305.756,132.456 305.756 C 129.368 305.757,128.152 305.810,129.754 305.875 M166.228 305.868 C 166.855 305.946,167.882 305.946,168.509 305.868 C 169.136 305.790,168.623 305.726,167.368 305.726 C 166.114 305.726,165.601 305.790,166.228 305.868 M180.072 305.874 C 181.367 305.941,183.577 305.942,184.985 305.875 C 186.392 305.808,185.333 305.753,182.632 305.752 C 179.930 305.752,178.778 305.807,180.072 305.874 M199.568 305.868 C 200.198 305.946,201.146 305.945,201.673 305.865 C 202.200 305.785,201.684 305.721,200.526 305.723 C 199.368 305.725,198.937 305.790,199.568 305.868 M222.361 305.867 C 222.983 305.945,224.089 305.946,224.817 305.870 C 225.545 305.794,225.035 305.731,223.684 305.729 C 222.333 305.728,221.738 305.790,222.361 305.867 M261.491 337.084 C 261.829 337.172,262.382 337.172,262.719 337.084 C 263.057 336.996,262.781 336.924,262.105 336.924 C 261.430 336.924,261.154 336.996,261.491 337.084 M193.421 347.961 C 193.759 348.049,194.311 348.049,194.649 347.961 C 194.987 347.873,194.711 347.801,194.035 347.801 C 193.360 347.801,193.083 347.873,193.421 347.961 " stroke="none" fill="#99a9c6" fill-rule="evenodd"></path><path id="path3" d="M202.896 30.000 C 202.899 30.772,202.971 31.046,203.055 30.610 C 203.139 30.173,203.136 29.542,203.048 29.206 C 202.960 28.871,202.892 29.228,202.896 30.000 M338.947 65.439 C 339.602 66.114,340.217 66.667,340.313 66.667 C 340.410 66.667,339.953 66.114,339.298 65.439 C 338.644 64.763,338.029 64.211,337.933 64.211 C 337.836 64.211,338.293 64.763,338.947 65.439 M131.390 130.614 L 129.649 132.456 131.491 130.715 C 132.504 129.757,133.333 128.928,133.333 128.873 C 133.333 128.611,133.008 128.902,131.390 130.614 M218.421 132.632 C 219.956 134.175,221.291 135.439,221.387 135.439 C 221.484 135.439,220.307 134.175,218.772 132.632 C 217.237 131.088,215.902 129.825,215.806 129.825 C 215.709 129.825,216.886 131.088,218.421 132.632 M144.912 249.233 C 144.912 249.293,145.425 249.806,146.053 250.373 L 147.193 251.404 146.162 250.263 C 145.202 249.200,144.912 248.962,144.912 249.233 M197.712 254.474 L 194.561 257.719 197.807 254.569 C 200.821 251.643,201.212 251.228,200.958 251.228 C 200.905 251.228,199.445 252.689,197.712 254.474 M149.474 253.860 C 150.522 254.921,151.458 255.789,151.555 255.789 C 151.651 255.789,150.873 254.921,149.825 253.860 C 148.776 252.798,147.840 251.930,147.743 251.930 C 147.647 251.930,148.425 252.798,149.474 253.860 M153.158 257.544 C 153.912 258.316,154.607 258.947,154.704 258.947 C 154.800 258.947,154.263 258.316,153.509 257.544 C 152.755 256.772,152.059 256.140,151.963 256.140 C 151.866 256.140,152.404 256.772,153.158 257.544 M177.695 294.737 C 177.695 299.272,177.745 301.127,177.806 298.860 C 177.867 296.592,177.867 292.882,177.806 290.614 C 177.745 288.346,177.695 290.202,177.695 294.737 M132.544 291.136 C 133.557 291.207,135.215 291.207,136.228 291.136 C 137.241 291.065,136.412 291.007,134.386 291.007 C 132.360 291.007,131.531 291.065,132.544 291.136 M188.521 293.158 C 188.524 294.123,188.592 294.476,188.673 293.943 C 188.753 293.409,188.751 292.620,188.668 292.188 C 188.585 291.757,188.519 292.193,188.521 293.158 M132.895 294.645 C 133.908 294.716,135.566 294.716,136.579 294.645 C 137.592 294.574,136.763 294.516,134.737 294.516 C 132.711 294.516,131.882 294.574,132.895 294.645 M266.232 298.143 C 266.669 298.227,267.300 298.224,267.636 298.136 C 267.971 298.048,267.614 297.979,266.842 297.983 C 266.070 297.987,265.796 298.059,266.232 298.143 M336.472 337.456 L 335.263 338.772 336.579 337.563 C 337.303 336.898,337.895 336.306,337.895 336.247 C 337.895 335.979,337.598 336.231,336.472 337.456 M195.526 347.961 C 195.864 348.049,196.417 348.049,196.754 347.961 C 197.092 347.873,196.816 347.801,196.140 347.801 C 195.465 347.801,195.189 347.873,195.526 347.961 " stroke="none" fill="#748cab" fill-rule="evenodd"></path><path id="path4" d="M205.351 58.838 C 205.689 58.927,206.241 58.927,206.579 58.838 C 206.917 58.750,206.640 58.678,205.965 58.678 C 205.289 58.678,205.013 58.750,205.351 58.838 M313.136 69.211 L 312.105 70.351 313.246 69.320 C 313.873 68.754,314.386 68.240,314.386 68.180 C 314.386 67.909,314.096 68.148,313.136 69.211 M69.649 77.895 C 70.403 78.667,71.099 79.298,71.195 79.298 C 71.292 79.298,70.754 78.667,70.000 77.895 C 69.246 77.123,68.551 76.491,68.454 76.491 C 68.358 76.491,68.895 77.123,69.649 77.895 M66.469 78.333 L 65.439 79.474 66.579 78.443 C 67.642 77.483,67.881 77.193,67.610 77.193 C 67.549 77.193,67.036 77.706,66.469 78.333 M79.825 87.719 C 80.578 88.491,81.274 89.123,81.370 89.123 C 81.467 89.123,80.929 88.491,80.175 87.719 C 79.422 86.947,78.726 86.316,78.630 86.316 C 78.533 86.316,79.071 86.947,79.825 87.719 M210.762 94.298 C 221.989 94.350,240.462 94.350,251.815 94.298 C 263.168 94.247,253.982 94.205,231.404 94.205 C 208.825 94.205,199.536 94.247,210.762 94.298 M161.749 100.263 L 157.719 104.386 161.842 100.357 C 165.672 96.614,166.124 96.140,165.871 96.140 C 165.820 96.140,163.965 97.996,161.749 100.263 M299.825 100.351 C 300.578 101.123,301.274 101.754,301.370 101.754 C 301.467 101.754,300.929 101.123,300.175 100.351 C 299.422 99.579,298.726 98.947,298.630 98.947 C 298.533 98.947,299.071 99.579,299.825 100.351 M189.459 103.947 C 190.913 105.497,191.228 105.775,191.228 105.512 C 191.228 105.455,190.478 104.705,189.561 103.845 L 187.895 102.281 189.459 103.947 M251.404 165.614 C 255.453 169.667,258.845 172.982,258.941 172.982 C 259.038 172.982,255.804 169.667,251.754 165.614 C 247.705 161.561,244.313 158.246,244.217 158.246 C 244.120 158.246,247.354 161.561,251.404 165.614 M96.136 165.526 L 90.351 171.404 96.228 165.618 C 101.688 160.243,102.264 159.649,102.014 159.649 C 101.963 159.649,99.318 162.294,96.136 165.526 M259.298 173.443 C 259.298 173.504,259.811 174.017,260.439 174.583 L 261.579 175.614 260.548 174.474 C 259.588 173.411,259.298 173.172,259.298 173.443 M341.141 195.965 C 341.145 196.737,341.217 197.011,341.301 196.575 C 341.385 196.138,341.382 195.507,341.294 195.171 C 341.206 194.836,341.137 195.193,341.141 195.965 M6.070 196.842 C 6.070 197.904,6.136 198.338,6.216 197.807 C 6.297 197.276,6.297 196.408,6.216 195.877 C 6.136 195.346,6.070 195.781,6.070 196.842 M58.327 198.596 C 58.327 199.272,58.399 199.548,58.487 199.211 C 58.576 198.873,58.576 198.320,58.487 197.982 C 58.399 197.645,58.327 197.921,58.327 198.596 M58.327 201.754 C 58.327 202.430,58.399 202.706,58.487 202.368 C 58.576 202.031,58.576 201.478,58.487 201.140 C 58.399 200.803,58.327 201.079,58.327 201.754 M6.065 203.684 C 6.068 204.649,6.136 205.002,6.217 204.469 C 6.297 203.936,6.295 203.146,6.212 202.714 C 6.129 202.283,6.063 202.719,6.065 203.684 M341.141 204.386 C 341.145 205.158,341.217 205.432,341.301 204.996 C 341.385 204.559,341.382 203.928,341.294 203.592 C 341.206 203.257,341.137 203.614,341.141 204.386 M108.421 213.158 C 112.567 217.307,116.038 220.702,116.134 220.702 C 116.231 220.702,112.918 217.307,108.772 213.158 C 104.626 209.009,101.155 205.614,101.059 205.614 C 100.962 205.614,104.275 209.009,108.421 213.158 M236.664 215.526 L 228.596 223.684 236.754 215.617 C 244.335 208.121,245.071 207.368,244.822 207.368 C 244.772 207.368,241.101 211.039,236.664 215.526 M116.491 221.162 C 116.491 221.223,117.004 221.736,117.632 222.303 L 118.772 223.333 117.741 222.193 C 116.781 221.130,116.491 220.891,116.491 221.162 M253.071 289.298 C 253.075 290.070,253.147 290.345,253.231 289.908 C 253.315 289.472,253.311 288.840,253.224 288.505 C 253.136 288.169,253.067 288.526,253.071 289.298 M138.697 292.807 C 138.699 293.772,138.768 294.125,138.848 293.592 C 138.929 293.058,138.927 292.269,138.843 291.837 C 138.760 291.406,138.694 291.842,138.697 292.807 M262.206 297.018 C 262.208 297.982,262.276 298.336,262.357 297.802 C 262.438 297.269,262.436 296.479,262.352 296.048 C 262.269 295.616,262.203 296.053,262.206 297.018 M273.785 297.368 C 273.787 298.333,273.855 298.686,273.936 298.153 C 274.017 297.620,274.014 296.830,273.931 296.399 C 273.848 295.967,273.782 296.404,273.785 297.368 M143.601 297.094 C 144.135 297.175,144.924 297.172,145.356 297.089 C 145.787 297.006,145.351 296.940,144.386 296.942 C 143.421 296.945,143.068 297.013,143.601 297.094 M149.211 306.558 C 149.548 306.646,150.101 306.646,150.439 306.558 C 150.776 306.469,150.500 306.397,149.825 306.397 C 149.149 306.397,148.873 306.469,149.211 306.558 M97.281 340.877 C 97.285 341.649,97.357 341.924,97.441 341.487 C 97.525 341.051,97.522 340.419,97.434 340.084 C 97.346 339.748,97.278 340.105,97.281 340.877 M102.722 340.965 C 102.937 343.221,103.075 343.405,103.117 341.491 C 103.140 340.478,103.032 339.649,102.877 339.649 C 102.723 339.649,102.653 340.241,102.722 340.965 " stroke="none" fill="#c8d7f0" fill-rule="evenodd"></path><path id="path5" d="M195.877 0.602 C 196.408 0.683,197.276 0.683,197.807 0.602 C 198.338 0.522,197.904 0.456,196.842 0.456 C 195.781 0.456,195.346 0.522,195.877 0.602 M202.024 0.605 C 202.654 0.683,203.602 0.682,204.129 0.602 C 204.656 0.522,204.140 0.458,202.982 0.460 C 201.825 0.462,201.393 0.527,202.024 0.605 M202.912 27.018 C 202.912 28.079,202.978 28.513,203.058 27.982 C 203.139 27.452,203.139 26.583,203.058 26.053 C 202.978 25.522,202.912 25.956,202.912 27.018 M196.938 33.684 C 196.938 34.553,197.006 34.908,197.090 34.474 C 197.173 34.039,197.173 33.329,197.090 32.895 C 197.006 32.461,196.938 32.816,196.938 33.684 M195.355 52.529 C 195.791 52.613,196.423 52.610,196.758 52.522 C 197.094 52.434,196.737 52.365,195.965 52.369 C 195.193 52.373,194.919 52.445,195.355 52.529 M203.246 52.523 C 203.583 52.611,204.136 52.611,204.474 52.523 C 204.811 52.434,204.535 52.362,203.860 52.362 C 203.184 52.362,202.908 52.434,203.246 52.523 M340.877 59.298 C 342.412 60.842,343.747 62.105,343.843 62.105 C 343.940 62.105,342.763 60.842,341.228 59.298 C 339.693 57.754,338.359 56.491,338.262 56.491 C 338.166 56.491,339.342 57.754,340.877 59.298 M199.215 58.494 C 199.651 58.578,200.283 58.575,200.618 58.487 C 200.954 58.399,200.596 58.330,199.825 58.334 C 199.053 58.338,198.778 58.410,199.215 58.494 M333.684 60.175 C 334.339 60.851,334.953 61.404,335.050 61.404 C 335.146 61.404,334.690 60.851,334.035 60.175 C 333.380 59.500,332.766 58.947,332.669 58.947 C 332.573 58.947,333.030 59.500,333.684 60.175 M62.800 63.070 L 59.474 66.491 62.895 63.165 C 66.072 60.075,66.475 59.649,66.221 59.649 C 66.169 59.649,64.630 61.189,62.800 63.070 M67.878 70.263 L 66.491 71.754 67.982 70.367 C 68.803 69.605,69.474 68.933,69.474 68.876 C 69.474 68.611,69.168 68.876,67.878 70.263 M78.231 77.982 C 79.091 78.899,79.841 79.649,79.898 79.649 C 80.161 79.649,79.883 79.334,78.333 77.880 L 76.667 76.316 78.231 77.982 M72.632 80.461 C 72.632 80.521,73.145 81.034,73.772 81.601 L 74.912 82.632 73.882 81.491 C 72.921 80.428,72.632 80.190,72.632 80.461 M87.018 86.426 C 87.018 86.486,87.531 86.999,88.158 87.566 L 89.298 88.596 88.268 87.456 C 87.307 86.393,87.018 86.155,87.018 86.426 M322.264 89.211 L 320.877 90.702 322.368 89.315 C 323.755 88.025,324.021 87.719,323.755 87.719 C 323.698 87.719,323.027 88.390,322.264 89.211 M83.333 90.877 C 84.087 91.649,84.783 92.281,84.879 92.281 C 84.976 92.281,84.438 91.649,83.684 90.877 C 82.930 90.105,82.235 89.474,82.138 89.474 C 82.042 89.474,82.580 90.105,83.333 90.877 M89.633 92.368 L 88.246 93.860 89.737 92.473 C 91.124 91.183,91.389 90.877,91.124 90.877 C 91.067 90.877,90.395 91.548,89.633 92.368 M276.660 136.667 C 276.660 157.509,276.703 165.984,276.754 155.499 C 276.806 145.015,276.806 127.963,276.754 117.605 C 276.703 107.247,276.660 115.825,276.660 136.667 M205.965 120.175 C 209.918 124.132,213.230 127.368,213.327 127.368 C 213.423 127.368,210.268 124.132,206.316 120.175 C 202.363 116.219,199.050 112.982,198.954 112.982 C 198.857 112.982,202.012 116.219,205.965 120.175 M117.368 144.561 C 113.319 148.614,110.085 151.930,110.182 151.930 C 110.278 151.930,113.670 148.614,117.719 144.561 C 121.768 140.509,125.003 137.193,124.906 137.193 C 124.810 137.193,121.418 140.509,117.368 144.561 M47.106 183.333 C 47.110 184.105,47.182 184.380,47.266 183.943 C 47.350 183.507,47.346 182.875,47.259 182.540 C 47.171 182.204,47.102 182.561,47.106 183.333 M259.293 193.246 L 254.912 197.719 259.386 193.339 C 263.542 189.269,264.019 188.772,263.767 188.772 C 263.716 188.772,261.702 190.785,259.293 193.246 M276.660 229.825 C 276.660 250.570,276.703 259.057,276.754 248.684 C 276.806 238.311,276.806 221.338,276.754 210.965 C 276.703 200.592,276.660 209.079,276.660 229.825 M347.464 197.895 C 347.464 198.763,347.532 199.118,347.616 198.684 C 347.700 198.250,347.700 197.539,347.616 197.105 C 347.532 196.671,347.464 197.026,347.464 197.895 M35.180 200.603 C 35.714 200.683,36.503 200.681,36.935 200.598 C 37.366 200.515,36.930 200.449,35.965 200.451 C 35.000 200.454,34.647 200.522,35.180 200.603 M347.469 202.281 C 347.471 203.246,347.540 203.599,347.620 203.065 C 347.701 202.532,347.699 201.743,347.615 201.311 C 347.532 200.879,347.466 201.316,347.469 202.281 M23.596 214.277 C 23.934 214.365,24.487 214.365,24.825 214.277 C 25.162 214.189,24.886 214.116,24.211 214.116 C 23.535 214.116,23.259 214.189,23.596 214.277 M353.010 219.561 C 352.992 220.092,353.184 220.349,353.596 220.346 C 353.975 220.342,354.063 220.241,353.825 220.082 C 353.612 219.941,353.348 219.588,353.238 219.298 C 353.104 218.947,353.029 219.034,353.010 219.561 M23.596 219.891 C 23.934 219.979,24.487 219.979,24.825 219.891 C 25.162 219.803,24.886 219.731,24.211 219.731 C 23.535 219.731,23.259 219.803,23.596 219.891 M26.583 219.897 C 27.019 219.981,27.651 219.978,27.987 219.890 C 28.322 219.802,27.965 219.734,27.193 219.738 C 26.421 219.742,26.147 219.813,26.583 219.897 M125.965 230.266 C 125.965 230.315,130.268 234.618,135.526 239.827 L 145.088 249.298 135.616 239.737 C 126.815 230.852,125.965 230.017,125.965 230.266 M190.877 261.228 C 189.439 262.675,188.342 263.860,188.439 263.860 C 188.535 263.860,189.790 262.675,191.228 261.228 C 192.666 259.781,193.763 258.596,193.667 258.596 C 193.570 258.596,192.315 259.781,190.877 261.228 M238.513 281.301 C 238.949 281.385,239.581 281.382,239.916 281.294 C 240.252 281.206,239.895 281.137,239.123 281.141 C 238.351 281.145,238.076 281.217,238.513 281.301 M254.825 281.295 C 255.162 281.383,255.715 281.383,256.053 281.295 C 256.390 281.206,256.114 281.134,255.439 281.134 C 254.763 281.134,254.487 281.206,254.825 281.295 M126.474 293.509 C 126.474 300.263,126.521 302.977,126.579 299.539 C 126.636 296.101,126.636 290.575,126.578 287.258 C 126.521 283.942,126.474 286.754,126.474 293.509 M277.293 283.333 C 277.296 284.298,277.364 284.651,277.445 284.118 C 277.525 283.585,277.523 282.795,277.440 282.364 C 277.357 281.932,277.291 282.368,277.293 283.333 M177.632 285.439 C 177.636 286.211,177.708 286.485,177.792 286.049 C 177.876 285.612,177.873 284.981,177.785 284.645 C 177.697 284.310,177.628 284.667,177.632 285.439 M236.609 289.474 C 236.609 290.921,236.671 291.513,236.747 290.789 C 236.823 290.066,236.823 288.882,236.747 288.158 C 236.671 287.434,236.609 288.026,236.609 289.474 M153.075 288.673 C 153.608 288.753,154.398 288.751,154.829 288.668 C 155.261 288.585,154.825 288.519,153.860 288.521 C 152.895 288.524,152.542 288.592,153.075 288.673 M248.559 294.211 C 248.560 296.912,248.615 297.971,248.682 296.564 C 248.749 295.156,248.748 292.946,248.681 291.651 C 248.614 290.357,248.559 291.509,248.559 294.211 M241.134 290.877 C 241.134 291.553,241.206 291.829,241.295 291.491 C 241.383 291.154,241.383 290.601,241.295 290.263 C 241.206 289.925,241.134 290.202,241.134 290.877 M188.502 295.789 C 188.502 296.465,188.575 296.741,188.663 296.404 C 188.751 296.066,188.751 295.513,188.663 295.175 C 188.575 294.838,188.502 295.114,188.502 295.789 M95.439 295.899 C 95.439 295.960,95.952 296.473,96.579 297.040 L 97.719 298.070 96.689 296.930 C 95.728 295.867,95.439 295.628,95.439 295.899 M199.912 301.651 C 200.346 301.735,201.057 301.735,201.491 301.651 C 201.925 301.568,201.570 301.499,200.702 301.499 C 199.833 301.499,199.478 301.568,199.912 301.651 M305.767 302.895 L 304.737 304.035 305.877 303.005 C 306.504 302.438,307.018 301.925,307.018 301.864 C 307.018 301.593,306.728 301.832,305.767 302.895 M102.456 302.917 C 102.456 302.977,102.969 303.490,103.596 304.057 L 104.737 305.088 103.706 303.947 C 102.746 302.884,102.456 302.646,102.456 302.917 M177.639 304.211 C 177.639 305.079,177.708 305.434,177.791 305.000 C 177.875 304.566,177.875 303.855,177.791 303.421 C 177.708 302.987,177.639 303.342,177.639 304.211 M94.386 303.619 C 94.386 303.679,94.899 304.192,95.526 304.759 L 96.667 305.789 95.636 304.649 C 94.675 303.586,94.386 303.347,94.386 303.619 M302.610 306.053 L 301.579 307.193 302.719 306.162 C 303.346 305.596,303.860 305.082,303.860 305.022 C 303.860 304.751,303.570 304.990,302.610 306.053 M338.928 335.000 L 337.719 336.316 339.035 335.107 C 340.260 333.981,340.512 333.684,340.244 333.684 C 340.186 333.684,339.594 334.276,338.928 335.000 M62.807 337.368 C 64.050 338.623,65.146 339.649,65.243 339.649 C 65.339 339.649,64.401 338.623,63.158 337.368 C 61.915 336.114,60.819 335.088,60.722 335.088 C 60.626 335.088,61.564 336.114,62.807 337.368 M334.016 339.912 L 332.807 341.228 334.123 340.019 C 335.348 338.893,335.600 338.596,335.332 338.596 C 335.273 338.596,334.681 339.189,334.016 339.912 M341.041 340.965 L 339.123 342.982 341.140 341.065 C 343.015 339.283,343.319 338.947,343.058 338.947 C 343.003 338.947,342.095 339.855,341.041 340.965 M201.491 347.961 C 201.829 348.049,202.382 348.049,202.719 347.961 C 203.057 347.873,202.781 347.801,202.105 347.801 C 201.430 347.801,201.154 347.873,201.491 347.961 M212.018 359.891 C 212.355 359.979,212.908 359.979,213.246 359.891 C 213.583 359.803,213.307 359.731,212.632 359.731 C 211.956 359.731,211.680 359.803,212.018 359.891 M204.649 370.066 C 204.987 370.155,205.539 370.155,205.877 370.066 C 206.215 369.978,205.939 369.906,205.263 369.906 C 204.588 369.906,204.311 369.978,204.649 370.066 M214.818 376.140 C 214.818 376.816,214.890 377.092,214.979 376.754 C 215.067 376.417,215.067 375.864,214.979 375.526 C 214.890 375.189,214.818 375.465,214.818 376.140 M210.959 376.842 C 210.959 377.518,211.031 377.794,211.119 377.456 C 211.207 377.118,211.207 376.566,211.119 376.228 C 211.031 375.890,210.959 376.167,210.959 376.842 M198.860 399.897 C 199.294 399.980,200.004 399.980,200.439 399.897 C 200.873 399.813,200.518 399.745,199.649 399.745 C 198.781 399.745,198.425 399.813,198.860 399.897 " stroke="none" fill="#7c84a4" fill-rule="evenodd"></path><path id="path6" d="M202.888 36.140 C 202.888 36.816,202.961 37.092,203.049 36.754 C 203.137 36.417,203.137 35.864,203.049 35.526 C 202.961 35.189,202.888 35.465,202.888 36.140 M82.456 81.864 C 82.456 81.925,82.969 82.438,83.596 83.005 L 84.737 84.035 83.706 82.895 C 82.746 81.832,82.456 81.593,82.456 81.864 M151.754 110.175 C 149.445 112.491,147.634 114.386,147.730 114.386 C 147.827 114.386,149.796 112.491,152.105 110.175 C 154.415 107.860,156.226 105.965,156.129 105.965 C 156.033 105.965,154.064 107.860,151.754 110.175 M238.070 152.281 C 239.411 153.632,240.586 154.737,240.683 154.737 C 240.779 154.737,239.762 153.632,238.421 152.281 C 237.081 150.930,235.905 149.825,235.808 149.825 C 235.712 149.825,236.730 150.930,238.070 152.281 M113.799 179.912 C 123.993 179.964,140.572 179.964,150.641 179.912 C 160.709 179.860,152.368 179.818,132.105 179.818 C 111.842 179.818,103.604 179.861,113.799 179.912 M360.618 181.652 C 361.055 181.736,361.686 181.732,362.022 181.645 C 362.357 181.557,362.000 181.488,361.228 181.492 C 360.456 181.496,360.182 181.568,360.618 181.652 M113.624 186.579 C 124.687 186.630,142.687 186.630,153.624 186.579 C 164.560 186.527,155.509 186.485,133.509 186.485 C 111.509 186.485,102.560 186.527,113.624 186.579 M93.684 198.421 C 95.316 200.061,96.730 201.404,96.827 201.404 C 96.923 201.404,95.667 200.061,94.035 198.421 C 92.403 196.781,90.989 195.439,90.893 195.439 C 90.796 195.439,92.052 196.781,93.684 198.421 M225.066 227.105 L 224.035 228.246 225.175 227.215 C 226.238 226.254,226.477 225.965,226.206 225.965 C 226.146 225.965,225.632 226.478,225.066 227.105 M219.293 232.895 L 214.912 237.368 219.386 232.988 C 223.542 228.919,224.019 228.421,223.767 228.421 C 223.716 228.421,221.702 230.434,219.293 232.895 M134.829 281.304 C 135.363 281.385,136.152 281.383,136.584 281.300 C 137.015 281.216,136.579 281.150,135.614 281.153 C 134.649 281.156,134.296 281.224,134.829 281.304 M131.002 287.895 C 131.001 289.632,131.060 290.386,131.134 289.572 C 131.207 288.758,131.208 287.337,131.136 286.414 C 131.063 285.492,131.003 286.158,131.002 287.895 M266.234 294.640 C 266.865 294.718,267.812 294.717,268.340 294.637 C 268.867 294.557,268.351 294.493,267.193 294.495 C 266.035 294.497,265.604 294.562,266.234 294.640 M131.008 298.421 C 131.009 300.544,131.067 301.367,131.137 300.250 C 131.207 299.134,131.206 297.397,131.135 296.391 C 131.065 295.385,131.008 296.298,131.008 298.421 M253.083 297.719 C 253.085 298.684,253.154 299.037,253.234 298.504 C 253.315 297.971,253.313 297.181,253.229 296.750 C 253.146 296.318,253.080 296.754,253.083 297.719 M240.493 297.247 C 240.343 297.490,240.396 297.557,240.625 297.416 C 240.863 297.269,241.061 297.613,241.149 298.327 C 241.290 299.464,241.292 299.463,241.347 298.158 C 241.402 296.873,240.994 296.437,240.493 297.247 M202.912 303.509 C 202.912 304.570,202.978 305.004,203.058 304.474 C 203.139 303.943,203.139 303.075,203.058 302.544 C 202.978 302.013,202.912 302.447,202.912 303.509 " stroke="none" fill="#bcc4e1" fill-rule="evenodd"></path><path id="path7" d="" stroke="none" fill="#848c9c" fill-rule="evenodd"></path><path id="path8" d="" stroke="none" fill="#c4ccd4" fill-rule="evenodd"></path></g></svg>